<mxfile host="app.diagrams.net" modified="2023-09-21T11:00:38.941Z" agent="Mozilla/5.0 (Windows NT 10.0; Win64; x64; rv:109.0) Gecko/20100101 Firefox/117.0" etag="Dhsh9vfeZfE51uKJgMuh" version="21.7.5" type="github" pages="2">
  <diagram name="总图" id="Page-1">
    <mxGraphModel dx="2048" dy="626" grid="1" gridSize="10" guides="1" tooltips="1" connect="1" arrows="1" fold="1" page="1" pageScale="1" pageWidth="827" pageHeight="1169" math="1" shadow="0">
      <root>
        <mxCell id="0" />
        <mxCell id="1" parent="0" />
        <UserObject label="" tags="背景" id="46">
          <mxCell style="vsdxID=92;fillColor=none;gradientColor=none;shape=stencil(nZBLDoAgDERP0z3SIyjew0SURgSD+Lu9kMZoXLhwN9O+tukAlrNpJg1SzDH4QW/URgNYgZTkjA4UkwJUgGXng+6DX1zLfmoymdXo17xh5zmRJ6Q42BWCfc2oJfdAr+Yv+AP9Cb7OJ3H/2JG1HNGz/84klThPVCc=);dashed=1;strokeColor=#000000;points=[[1,0.5,0],[0.5,0,0],[0.5,0.5,0],[0.5,0.5,0]];labelBackgroundColor=none;rounded=0;html=1;whiteSpace=wrap;" parent="1" vertex="1">
            <mxGeometry x="194" y="395" width="586" height="114" as="geometry" />
          </mxCell>
        </UserObject>
        <UserObject label="" tags="背景" id="44">
          <mxCell style="vsdxID=90;fillColor=none;gradientColor=none;shape=stencil(nZBLDoAgDERP0z3SIyjew0SURgSD+Lu9kMZoXLhwN9O+tukAlrNpJg1SzDH4QW/URgNYgZTkjA4UkwJUgGXng+6DX1zLfmoymdXo17xh5zmRJ6Q42BWCfc2oJfdAr+Yv+AP9Cb7OJ3H/2JG1HNGz/84klThPVCc=);dashed=1;strokeColor=#000000;points=[[1,0.5,0],[0.5,0,0],[0.5,0.5,0],[0.5,0.5,0]];labelBackgroundColor=none;rounded=0;html=1;whiteSpace=wrap;" parent="1" vertex="1">
            <mxGeometry x="197" y="283" width="416" height="104" as="geometry" />
          </mxCell>
        </UserObject>
        <UserObject label="&lt;div style=&quot;font-size: 1px&quot;&gt;&lt;font style=&quot;font-size:14.11px;font-family:SimSun;color:#000000;direction:ltr;letter-spacing:0px;line-height:120%;opacity:1&quot;&gt;Turbo&lt;br/&gt;编码&lt;br/&gt;&lt;/font&gt;&lt;/div&gt;" tags="背景" id="2">
          <mxCell style="verticalAlign=middle;align=center;overflow=width;vsdxID=1;fillColor=none;gradientColor=none;shape=stencil(nZBLDoAgDERP0z3SIyjew0SURgSD+Lu9kMZoXLhwN9O+tukAlrNpJg1SzDH4QW/URgNYgZTkjA4UkwJUgGXng+6DX1zLfmoymdXo17xh5zmRJ6Q42BWCfc2oJfdAr+Yv+AP9Cb7OJ3H/2JG1HNGz/84klThPVCc=);strokeColor=#000000;points=[[1,0.5,0],[0.5,0,0],[0.5,0.5,0],[0.5,0.5,0]];labelBackgroundColor=none;rounded=0;html=1;whiteSpace=wrap;" parent="1" vertex="1">
            <mxGeometry x="204" y="306" width="72" height="54" as="geometry" />
          </mxCell>
        </UserObject>
        <UserObject label="&lt;div style=&quot;font-size: 1px&quot;&gt;&lt;font style=&quot;font-size:14.11px;font-family:SimSun;color:#000000;direction:ltr;letter-spacing:0px;line-height:120%;opacity:1&quot;&gt;Turbo&lt;br/&gt;编码&lt;br/&gt;&lt;/font&gt;&lt;/div&gt;" tags="背景" id="3">
          <mxCell style="verticalAlign=middle;align=center;overflow=width;vsdxID=2;fillColor=none;gradientColor=none;shape=stencil(nZBLDoAgDERP0z3SIyjew0SURgSD+Lu9kMZoXLhwN9O+tukAlrNpJg1SzDH4QW/URgNYgZTkjA4UkwJUgGXng+6DX1zLfmoymdXo17xh5zmRJ6Q42BWCfc2oJfdAr+Yv+AP9Cb7OJ3H/2JG1HNGz/84klThPVCc=);strokeColor=#000000;points=[[1,0.5,0],[0.5,0,0],[0.5,0.5,0],[0.5,0.5,0]];labelBackgroundColor=none;rounded=0;html=1;whiteSpace=wrap;" parent="1" vertex="1">
            <mxGeometry x="370" y="408" width="72" height="54" as="geometry" />
          </mxCell>
        </UserObject>
        <UserObject label="&lt;div style=&quot;font-size: 1px&quot;&gt;&lt;font style=&quot;font-size:14.11px;font-family:SimSun;color:#000000;direction:ltr;letter-spacing:0px;line-height:120%;opacity:1&quot;&gt;分集拷贝&lt;br/&gt;&lt;/font&gt;&lt;/div&gt;" tags="背景" id="4">
          <mxCell style="verticalAlign=middle;align=center;overflow=width;vsdxID=3;fillColor=none;gradientColor=none;shape=stencil(nZBLDoAgDERP0z3SIyjew0SURgSD+Lu9kMZoXLhwN9O+tukAlrNpJg1SzDH4QW/URgNYgZTkjA4UkwJUgGXng+6DX1zLfmoymdXo17xh5zmRJ6Q42BWCfc2oJfdAr+Yv+AP9Cb7OJ3H/2JG1HNGz/84klThPVCc=);strokeColor=#000000;points=[[1,0.5,0],[0.5,0,0],[0.5,0.5,0],[0.5,0.5,0]];labelBackgroundColor=none;rounded=0;html=1;whiteSpace=wrap;" parent="1" vertex="1">
            <mxGeometry x="534" y="306" width="72" height="54" as="geometry" />
          </mxCell>
        </UserObject>
        <UserObject label="&lt;div style=&quot;font-size: 1px&quot;&gt;&lt;font style=&quot;font-size:14.11px;font-family:SimSun;color:#000000;direction:ltr;letter-spacing:0px;line-height:120%;opacity:1&quot;&gt;信道交织&lt;br/&gt;&lt;/font&gt;&lt;/div&gt;" tags="背景" id="5">
          <mxCell style="verticalAlign=middle;align=center;overflow=width;vsdxID=4;fillColor=none;gradientColor=none;shape=stencil(nZBLDoAgDERP0z3SIyjew0SURgSD+Lu9kMZoXLhwN9O+tukAlrNpJg1SzDH4QW/URgNYgZTkjA4UkwJUgGXng+6DX1zLfmoymdXo17xh5zmRJ6Q42BWCfc2oJfdAr+Yv+AP9Cb7OJ3H/2JG1HNGz/84klThPVCc=);strokeColor=#000000;points=[[1,0.5,0],[0.5,0,0],[0.5,0.5,0],[0.5,0.5,0]];labelBackgroundColor=none;rounded=0;html=1;whiteSpace=wrap;" parent="1" vertex="1">
            <mxGeometry x="370" y="306" width="72" height="54" as="geometry" />
          </mxCell>
        </UserObject>
        <UserObject label="&lt;div style=&quot;font-size: 1px&quot;&gt;&lt;font style=&quot;font-size:14.11px;font-family:SimSun;color:#000000;direction:ltr;letter-spacing:0px;line-height:120%;opacity:1&quot;&gt;扰码&lt;br/&gt;&lt;/font&gt;&lt;/div&gt;" tags="背景" id="6">
          <mxCell style="verticalAlign=middle;align=center;overflow=width;vsdxID=5;fillColor=none;gradientColor=none;shape=stencil(nZBLDoAgDERP0z3SIyjew0SURgSD+Lu9kMZoXLhwN9O+tukAlrNpJg1SzDH4QW/URgNYgZTkjA4UkwJUgGXng+6DX1zLfmoymdXo17xh5zmRJ6Q42BWCfc2oJfdAr+Yv+AP9Cb7OJ3H/2JG1HNGz/84klThPVCc=);strokeColor=#000000;points=[[1,0.5,0],[0.5,0,0],[0.5,0.5,0],[0.5,0.5,0]];labelBackgroundColor=none;rounded=0;html=1;whiteSpace=wrap;" parent="1" vertex="1">
            <mxGeometry x="204" y="408" width="72" height="54" as="geometry" />
          </mxCell>
        </UserObject>
        <UserObject label="&lt;div style=&quot;font-size: 1px&quot;&gt;&lt;font style=&quot;font-size:14.11px;font-family:SimSun;color:#000000;direction:ltr;letter-spacing:0px;line-height:120%;opacity:1&quot;&gt;帧控制数据输入&lt;br/&gt;&lt;/font&gt;&lt;/div&gt;" tags="背景" id="8">
          <mxCell style="verticalAlign=middle;align=center;overflow=width;vsdxID=7;fillColor=none;gradientColor=none;shape=stencil(nZBLDoAgDERP0z3SIyjew0SURgSD+Lu9kMZoXLhwN9O+tukAlrNpJg1SzDH4QW/URgNYgZTkjA4UkwJUgGXng+6DX1zLfmoymdXo17xh5zmRJ6Q42BWCfc2oJfdAr+Yv+AP9Cb7OJ3H/2JG1HNGz/84klThPVCc=);strokeColor=none;points=[];labelBackgroundColor=none;rounded=0;html=1;whiteSpace=wrap;" parent="1" vertex="1">
            <mxGeometry x="116" y="290" width="87" height="37" as="geometry" />
          </mxCell>
        </UserObject>
        <UserObject label="&lt;div style=&quot;font-size: 1px&quot;&gt;&lt;font style=&quot;font-size:14.11px;font-family:SimSun;color:#000000;direction:ltr;letter-spacing:0px;line-height:120%;opacity:1&quot;&gt;载荷数据输入&lt;br/&gt;&lt;/font&gt;&lt;/div&gt;" tags="背景" id="9">
          <mxCell style="verticalAlign=middle;align=center;overflow=width;vsdxID=15;fillColor=none;gradientColor=none;shape=stencil(nZBLDoAgDERP0z3SIyjew0SURgSD+Lu9kMZoXLhwN9O+tukAlrNpJg1SzDH4QW/URgNYgZTkjA4UkwJUgGXng+6DX1zLfmoymdXo17xh5zmRJ6Q42BWCfc2oJfdAr+Yv+AP9Cb7OJ3H/2JG1HNGz/84klThPVCc=);strokeColor=none;points=[];labelBackgroundColor=none;rounded=0;html=1;whiteSpace=wrap;" parent="1" vertex="1">
            <mxGeometry x="124" y="392" width="72" height="37" as="geometry" />
          </mxCell>
        </UserObject>
        <UserObject label="&lt;div style=&quot;font-size: 1px&quot;&gt;&lt;font style=&quot;font-size:14.11px;font-family:SimSun;color:#000000;direction:ltr;letter-spacing:0px;line-height:120%;opacity:1&quot;&gt;信道交织&lt;br/&gt;&lt;/font&gt;&lt;/div&gt;" tags="背景" id="11">
          <mxCell style="verticalAlign=middle;align=center;overflow=width;vsdxID=17;fillColor=none;gradientColor=none;shape=stencil(nZBLDoAgDERP0z3SIyjew0SURgSD+Lu9kMZoXLhwN9O+tukAlrNpJg1SzDH4QW/URgNYgZTkjA4UkwJUgGXng+6DX1zLfmoymdXo17xh5zmRJ6Q42BWCfc2oJfdAr+Yv+AP9Cb7OJ3H/2JG1HNGz/84klThPVCc=);strokeColor=#000000;points=[[1,0.5,0],[0.5,0,0],[0.5,0.5,0],[0.5,0.5,0]];labelBackgroundColor=none;rounded=0;html=1;whiteSpace=wrap;" parent="1" vertex="1">
            <mxGeometry x="536" y="408" width="72" height="54" as="geometry" />
          </mxCell>
        </UserObject>
        <UserObject label="&lt;div style=&quot;font-size: 1px&quot;&gt;&lt;font style=&quot;font-size:14.11px;font-family:SimSun;color:#000000;direction:ltr;letter-spacing:0px;line-height:120%;opacity:1&quot;&gt;分集拷贝&lt;br/&gt;&lt;/font&gt;&lt;/div&gt;" tags="背景" id="12">
          <mxCell style="verticalAlign=middle;align=center;overflow=width;vsdxID=18;fillColor=none;gradientColor=none;shape=stencil(nZBLDoAgDERP0z3SIyjew0SURgSD+Lu9kMZoXLhwN9O+tukAlrNpJg1SzDH4QW/URgNYgZTkjA4UkwJUgGXng+6DX1zLfmoymdXo17xh5zmRJ6Q42BWCfc2oJfdAr+Yv+AP9Cb7OJ3H/2JG1HNGz/84klThPVCc=);strokeColor=#000000;points=[[1,0.5,0],[0.5,0,0],[0.5,0.5,0],[0.5,0.5,0]];labelBackgroundColor=none;rounded=0;html=1;whiteSpace=wrap;" parent="1" vertex="1">
            <mxGeometry x="702" y="408" width="72" height="54" as="geometry" />
          </mxCell>
        </UserObject>
        <UserObject label="&lt;div style=&quot;font-size: 1px&quot;&gt;&lt;font style=&quot;font-size:14.11px;font-family:SimSun;color:#000000;direction:ltr;letter-spacing:0px;line-height:120%;opacity:1&quot;&gt;星座点映射&lt;br/&gt;&lt;/font&gt;&lt;/div&gt;" tags="背景" id="13">
          <mxCell style="verticalAlign=middle;align=center;overflow=width;vsdxID=19;fillColor=none;gradientColor=none;shape=stencil(nZBLDoAgDERP0z3SIyjew0SURgSD+Lu9kMZoXLhwN9O+tukAlrNpJg1SzDH4QW/URgNYgZTkjA4UkwJUgGXng+6DX1zLfmoymdXo17xh5zmRJ6Q42BWCfc2oJfdAr+Yv+AP9Cb7OJ3H/2JG1HNGz/84klThPVCc=);strokeColor=#000000;points=[[1,0.5,0],[0.5,0,0],[0.5,0.5,0],[0.5,0.5,0]];labelBackgroundColor=none;rounded=0;html=1;whiteSpace=wrap;" parent="1" vertex="1">
            <mxGeometry x="746" y="306" width="87" height="54" as="geometry" />
          </mxCell>
        </UserObject>
        <UserObject label="&lt;div style=&quot;font-size: 1px&quot;&gt;&lt;font style=&quot;font-size:14.11px;font-family:SimSun;color:#000000;direction:ltr;letter-spacing:0px;line-height:120%;opacity:1&quot;&gt;IFFT&lt;br/&gt;&lt;/font&gt;&lt;/div&gt;" tags="背景" id="14">
          <mxCell style="verticalAlign=middle;align=center;overflow=width;vsdxID=20;fillColor=none;gradientColor=none;shape=stencil(nZBLDoAgDERP0z3SIyjew0SURgSD+Lu9kMZoXLhwN9O+tukAlrNpJg1SzDH4QW/URgNYgZTkjA4UkwJUgGXng+6DX1zLfmoymdXo17xh5zmRJ6Q42BWCfc2oJfdAr+Yv+AP9Cb7OJ3H/2JG1HNGz/84klThPVCc=);strokeColor=#000000;points=[[1,0.5,0],[0.5,0,0],[0.5,0.5,0],[0.5,0.5,0]];labelBackgroundColor=none;rounded=0;html=1;whiteSpace=wrap;" parent="1" vertex="1">
            <mxGeometry x="949" y="306" width="72" height="54" as="geometry" />
          </mxCell>
        </UserObject>
        <UserObject label="&lt;div style=&quot;font-size: 1px&quot;&gt;&lt;font style=&quot;font-size:14.11px;font-family:SimSun;color:#000000;direction:ltr;letter-spacing:0px;line-height:120%;opacity:1&quot;&gt;循环前缀&amp;amp;加窗&lt;br/&gt;&lt;/font&gt;&lt;/div&gt;" tags="背景" id="15">
          <mxCell style="verticalAlign=middle;align=center;overflow=width;vsdxID=21;fillColor=none;gradientColor=none;shape=stencil(nZBLDoAgDERP0z3SIyjew0SURgSD+Lu9kMZoXLhwN9O+tukAlrNpJg1SzDH4QW/URgNYgZTkjA4UkwJUgGXng+6DX1zLfmoymdXo17xh5zmRJ6Q42BWCfc2oJfdAr+Yv+AP9Cb7OJ3H/2JG1HNGz/84klThPVCc=);strokeColor=#000000;points=[[1,0.5,0],[0.5,0,0],[0.5,0.5,0],[0.5,0.5,0]];labelBackgroundColor=none;rounded=0;html=1;whiteSpace=wrap;" parent="1" vertex="1">
            <mxGeometry x="1126" y="306" width="72" height="54" as="geometry" />
          </mxCell>
        </UserObject>
        <UserObject label="&lt;div style=&quot;font-size: 1px&quot;&gt;&lt;font style=&quot;font-size:14.11px;font-family:SimSun;color:#000000;direction:ltr;letter-spacing:0px;line-height:120%;opacity:1&quot;&gt;添加前导&lt;br/&gt;&lt;/font&gt;&lt;/div&gt;" tags="背景" id="16">
          <mxCell style="verticalAlign=middle;align=center;overflow=width;vsdxID=22;fillColor=none;gradientColor=none;shape=stencil(nZBLDoAgDERP0z3SIyjew0SURgSD+Lu9kMZoXLhwN9O+tukAlrNpJg1SzDH4QW/URgNYgZTkjA4UkwJUgGXng+6DX1zLfmoymdXo17xh5zmRJ6Q42BWCfc2oJfdAr+Yv+AP9Cb7OJ3H/2JG1HNGz/84klThPVCc=);strokeColor=#000000;points=[[1,0.5,0],[0.5,0,0],[0.5,0.5,0],[0.5,0.5,0]];labelBackgroundColor=none;rounded=0;html=1;whiteSpace=wrap;" parent="1" vertex="1">
            <mxGeometry x="1321" y="306" width="72" height="54" as="geometry" />
          </mxCell>
        </UserObject>
        <UserObject label="" tags="连接线" id="95">
          <mxCell style="vsdxID=33;edgeStyle=none;startArrow=none;endArrow=block;startSize=5;endSize=5;strokeColor=#000000;spacingTop=0;spacingBottom=0;spacingLeft=0;spacingRight=0;verticalAlign=middle;html=1;labelBackgroundColor=#ffffff;rounded=0;" parent="1" edge="1">
            <mxGeometry relative="1" as="geometry">
              <mxPoint as="offset" />
              <Array as="points">
                <mxPoint x="791.88" y="435" />
                <mxPoint x="791.88" y="388.4" />
                <mxPoint x="672" y="388.4" />
              </Array>
              <mxPoint x="774" y="435" as="sourcePoint" />
              <mxPoint x="672" y="333" as="targetPoint" />
            </mxGeometry>
          </mxCell>
        </UserObject>
        <UserObject label="" tags="背景" id="17">
          <mxCell style="vsdxID=35;fillColor=#000000;gradientColor=none;shape=stencil(nZBLDoAgDERP0z3SIyjew0SURgSD+Lu9kMZoXLhwN9O+tukAlrNpJg1SzDH4QW/URgNYgZTkjA4UkwJUgGXng+6DX1zLfmoymdXo17xh5zmRJ6Q42BWCfc2oJfdAr+Yv+AP9Cb7OJ3H/2JG1HNGz/84klThPVCc=);strokeColor=#000000;points=[[1,0.5,0],[0.5,0,0],[0.5,0.5,0],[0.5,0.5,0]];labelBackgroundColor=none;rounded=0;html=1;whiteSpace=wrap;" parent="1" vertex="1">
            <mxGeometry x="180" y="534" width="1386" height="6" as="geometry" />
          </mxCell>
        </UserObject>
        <UserObject label="&lt;div style=&quot;font-size: 1px&quot;&gt;&lt;font style=&quot;font-size:14.11px;font-family:SimSun;color:#000000;direction:ltr;letter-spacing:0px;line-height:120%;opacity:1&quot;&gt;模拟前端&lt;br/&gt;&lt;/font&gt;&lt;/div&gt;" tags="背景" id="18">
          <mxCell style="verticalAlign=middle;align=center;overflow=width;vsdxID=36;fillColor=none;gradientColor=none;shape=stencil(nZBLDoAgDERP0z3SIyjew0SURgSD+Lu9kMZoXLhwN9O+tukAlrNpJg1SzDH4QW/URgNYgZTkjA4UkwJUgGXng+6DX1zLfmoymdXo17xh5zmRJ6Q42BWCfc2oJfdAr+Yv+AP9Cb7OJ3H/2JG1HNGz/84klThPVCc=);strokeColor=#000000;points=[[1,0.5,0],[0.5,0,0],[0.5,0.5,0],[0.5,0.5,0]];labelBackgroundColor=none;rounded=0;html=1;whiteSpace=wrap;" parent="1" vertex="1">
            <mxGeometry x="1493" y="393" width="72" height="54" as="geometry" />
          </mxCell>
        </UserObject>
        <UserObject label="" tags="连接线" id="96">
          <mxCell style="vsdxID=38;edgeStyle=none;startArrow=none;endArrow=block;startSize=5;endSize=5;strokeColor=#000000;spacingTop=0;spacingBottom=0;spacingLeft=0;spacingRight=0;verticalAlign=middle;html=1;labelBackgroundColor=#ffffff;rounded=0;" parent="1" edge="1">
            <mxGeometry relative="1" as="geometry">
              <mxPoint x="-10" y="-1" as="offset" />
              <Array as="points" />
              <mxPoint x="235" y="535" as="sourcePoint" />
              <mxPoint x="235" y="580" as="targetPoint" />
            </mxGeometry>
          </mxCell>
        </UserObject>
        <UserObject label="&lt;div style=&quot;font-size: 1px&quot;&gt;&lt;font style=&quot;font-size:14.11px;font-family:SimSun;color:#000000;direction:ltr;letter-spacing:0px;line-height:120%;opacity:1&quot;&gt;模拟前端&lt;br/&gt;&lt;/font&gt;&lt;/div&gt;" tags="背景" id="19">
          <mxCell style="verticalAlign=middle;align=center;overflow=width;vsdxID=39;fillColor=none;gradientColor=none;shape=stencil(nZBLDoAgDERP0z3SIyjew0SURgSD+Lu9kMZoXLhwN9O+tukAlrNpJg1SzDH4QW/URgNYgZTkjA4UkwJUgGXng+6DX1zLfmoymdXo17xh5zmRJ6Q42BWCfc2oJfdAr+Yv+AP9Cb7OJ3H/2JG1HNGz/84klThPVCc=);strokeColor=#000000;points=[[1,0.5,0],[0.5,0,0],[0.5,0.5,0],[0.5,0.5,0]];labelBackgroundColor=none;rounded=0;html=1;whiteSpace=wrap;" parent="1" vertex="1">
            <mxGeometry x="199" y="580" width="72" height="54" as="geometry" />
          </mxCell>
        </UserObject>
        <UserObject label="&lt;div style=&quot;font-size: 1px&quot;&gt;&lt;font style=&quot;font-size:14.11px;font-family:SimSun;color:#000000;direction:ltr;letter-spacing:0px;line-height:120%;opacity:1&quot;&gt;AGC&lt;br/&gt;&lt;/font&gt;&lt;/div&gt;" tags="背景" id="20">
          <mxCell style="verticalAlign=middle;align=center;overflow=width;vsdxID=40;fillColor=none;gradientColor=none;shape=stencil(nZBLDoAgDERP0z3SIyjew0SURgSD+Lu9kMZoXLhwN9O+tukAlrNpJg1SzDH4QW/URgNYgZTkjA4UkwJUgGXng+6DX1zLfmoymdXo17xh5zmRJ6Q42BWCfc2oJfdAr+Yv+AP9Cb7OJ3H/2JG1HNGz/84klThPVCc=);strokeColor=#000000;points=[[1,0.5,0],[0.5,0,0],[0.5,0.5,0],[0.5,0.5,0]];labelBackgroundColor=none;rounded=0;html=1;whiteSpace=wrap;" parent="1" vertex="1">
            <mxGeometry x="199" y="663" width="72" height="54" as="geometry" />
          </mxCell>
        </UserObject>
        <UserObject label="&lt;div style=&quot;font-size: 1px&quot;&gt;&lt;font style=&quot;font-size:14.11px;font-family:SimSun;color:#000000;direction:ltr;letter-spacing:0px;line-height:120%;opacity:1&quot;&gt;同步&lt;br/&gt;&lt;/font&gt;&lt;/div&gt;" tags="背景" id="21">
          <mxCell style="verticalAlign=middle;align=center;overflow=width;vsdxID=42;fillColor=none;gradientColor=none;shape=stencil(nZBLDoAgDERP0z3SIyjew0SURgSD+Lu9kMZoXLhwN9O+tukAlrNpJg1SzDH4QW/URgNYgZTkjA4UkwJUgGXng+6DX1zLfmoymdXo17xh5zmRJ6Q42BWCfc2oJfdAr+Yv+AP9Cb7OJ3H/2JG1HNGz/84klThPVCc=);strokeColor=#000000;points=[[1,0.5,0],[0.5,0,0],[0.5,0.5,0],[0.5,0.5,0]];labelBackgroundColor=none;rounded=0;html=1;whiteSpace=wrap;" parent="1" vertex="1">
            <mxGeometry x="199" y="745" width="72" height="54" as="geometry" />
          </mxCell>
        </UserObject>
        <UserObject label="&lt;div style=&quot;font-size: 1px&quot;&gt;&lt;font style=&quot;font-size:14.11px;font-family:SimSun;color:#000000;direction:ltr;letter-spacing:0px;line-height:120%;opacity:1&quot;&gt;FFT&lt;br/&gt;&lt;/font&gt;&lt;/div&gt;" tags="背景" id="22">
          <mxCell style="verticalAlign=middle;align=center;overflow=width;vsdxID=43;fillColor=none;gradientColor=none;shape=stencil(nZBLDoAgDERP0z3SIyjew0SURgSD+Lu9kMZoXLhwN9O+tukAlrNpJg1SzDH4QW/URgNYgZTkjA4UkwJUgGXng+6DX1zLfmoymdXo17xh5zmRJ6Q42BWCfc2oJfdAr+Yv+AP9Cb7OJ3H/2JG1HNGz/84klThPVCc=);strokeColor=#000000;points=[[1,0.5,0],[0.5,0,0],[0.5,0.5,0],[0.5,0.5,0]];labelBackgroundColor=none;rounded=0;html=1;whiteSpace=wrap;" parent="1" vertex="1">
            <mxGeometry x="498" y="745" width="72" height="54" as="geometry" />
          </mxCell>
        </UserObject>
        <UserObject label="&lt;div style=&quot;font-size: 1px&quot;&gt;&lt;font style=&quot;font-size:14.11px;font-family:SimSun;color:#000000;direction:ltr;letter-spacing:0px;line-height:120%;opacity:1&quot;&gt;信道均衡&lt;br/&gt;&lt;/font&gt;&lt;/div&gt;" tags="背景" id="23">
          <mxCell style="verticalAlign=middle;align=center;overflow=width;vsdxID=47;fillColor=none;gradientColor=none;shape=stencil(nZBLDoAgDERP0z3SIyjew0SURgSD+Lu9kMZoXLhwN9O+tukAlrNpJg1SzDH4QW/URgNYgZTkjA4UkwJUgGXng+6DX1zLfmoymdXo17xh5zmRJ6Q42BWCfc2oJfdAr+Yv+AP9Cb7OJ3H/2JG1HNGz/84klThPVCc=);strokeColor=#000000;points=[[1,0.5,0],[0.5,0,0],[0.5,0.5,0],[0.5,0.5,0]];labelBackgroundColor=none;rounded=0;html=1;whiteSpace=wrap;" parent="1" vertex="1">
            <mxGeometry x="703" y="745" width="72" height="54" as="geometry" />
          </mxCell>
        </UserObject>
        <UserObject label="&lt;div style=&quot;font-size: 1px&quot;&gt;&lt;font style=&quot;font-size:14.11px;font-family:SimSun;color:#000000;direction:ltr;letter-spacing:0px;line-height:120%;opacity:1&quot;&gt;分集合并&lt;br/&gt;&lt;/font&gt;&lt;/div&gt;" tags="背景" id="24">
          <mxCell style="verticalAlign=middle;align=center;overflow=width;vsdxID=48;fillColor=none;gradientColor=none;shape=stencil(nZBLDoAgDERP0z3SIyjew0SURgSD+Lu9kMZoXLhwN9O+tukAlrNpJg1SzDH4QW/URgNYgZTkjA4UkwJUgGXng+6DX1zLfmoymdXo17xh5zmRJ6Q42BWCfc2oJfdAr+Yv+AP9Cb7OJ3H/2JG1HNGz/84klThPVCc=);strokeColor=#000000;points=[[1,0.5,0],[0.5,0,0],[0.5,0.5,0],[0.5,0.5,0]];labelBackgroundColor=none;rounded=0;html=1;whiteSpace=wrap;" parent="1" vertex="1">
            <mxGeometry x="1060" y="745" width="72" height="54" as="geometry" />
          </mxCell>
        </UserObject>
        <UserObject label="&lt;div style=&quot;font-size: 1px&quot;&gt;&lt;font style=&quot;font-size:14.11px;font-family:SimSun;color:#000000;direction:ltr;letter-spacing:0px;line-height:120%;opacity:1&quot;&gt;信道解交织&lt;br/&gt;&lt;/font&gt;&lt;/div&gt;" tags="背景" id="25">
          <mxCell style="verticalAlign=middle;align=center;overflow=width;vsdxID=49;fillColor=none;gradientColor=none;shape=stencil(nZBLDoAgDERP0z3SIyjew0SURgSD+Lu9kMZoXLhwN9O+tukAlrNpJg1SzDH4QW/URgNYgZTkjA4UkwJUgGXng+6DX1zLfmoymdXo17xh5zmRJ6Q42BWCfc2oJfdAr+Yv+AP9Cb7OJ3H/2JG1HNGz/84klThPVCc=);strokeColor=#000000;points=[[1,0.5,0],[0.5,0,0],[0.5,0.5,0],[0.5,0.5,0]];labelBackgroundColor=none;rounded=0;html=1;whiteSpace=wrap;" parent="1" vertex="1">
            <mxGeometry x="1224" y="745" width="72" height="54" as="geometry" />
          </mxCell>
        </UserObject>
        <UserObject label="&lt;div style=&quot;font-size: 1px&quot;&gt;&lt;font style=&quot;font-size:14.11px;font-family:SimSun;color:#000000;direction:ltr;letter-spacing:0px;line-height:120%;opacity:1&quot;&gt;Turbo译码&lt;br/&gt;&lt;/font&gt;&lt;/div&gt;" tags="背景" id="26">
          <mxCell style="verticalAlign=middle;align=center;overflow=width;vsdxID=50;fillColor=none;gradientColor=none;shape=stencil(nZBLDoAgDERP0z3SIyjew0SURgSD+Lu9kMZoXLhwN9O+tukAlrNpJg1SzDH4QW/URgNYgZTkjA4UkwJUgGXng+6DX1zLfmoymdXo17xh5zmRJ6Q42BWCfc2oJfdAr+Yv+AP9Cb7OJ3H/2JG1HNGz/84klThPVCc=);strokeColor=#000000;points=[[1,0.5,0],[0.5,0,0],[0.5,0.5,0],[0.5,0.5,0]];labelBackgroundColor=none;rounded=0;html=1;whiteSpace=wrap;" parent="1" vertex="1">
            <mxGeometry x="1391" y="745" width="72" height="54" as="geometry" />
          </mxCell>
        </UserObject>
        <UserObject label="&lt;div style=&quot;font-size: 1px&quot;&gt;&lt;font style=&quot;font-size:14.11px;font-family:SimSun;color:#000000;direction:ltr;letter-spacing:0px;line-height:120%;opacity:1&quot;&gt;分集合并&lt;br/&gt;&lt;/font&gt;&lt;/div&gt;" tags="背景" id="27">
          <mxCell style="verticalAlign=middle;align=center;overflow=width;vsdxID=51;fillColor=none;gradientColor=none;shape=stencil(nZBLDoAgDERP0z3SIyjew0SURgSD+Lu9kMZoXLhwN9O+tukAlrNpJg1SzDH4QW/URgNYgZTkjA4UkwJUgGXng+6DX1zLfmoymdXo17xh5zmRJ6Q42BWCfc2oJfdAr+Yv+AP9Cb7OJ3H/2JG1HNGz/84klThPVCc=);strokeColor=#000000;points=[[1,0.5,0],[0.5,0,0],[0.5,0.5,0],[0.5,0.5,0]];labelBackgroundColor=none;rounded=0;html=1;whiteSpace=wrap;" parent="1" vertex="1">
            <mxGeometry x="903" y="866" width="72" height="54" as="geometry" />
          </mxCell>
        </UserObject>
        <UserObject label="&lt;div style=&quot;font-size: 1px&quot;&gt;&lt;font style=&quot;font-size:14.11px;font-family:SimSun;color:#000000;direction:ltr;letter-spacing:0px;line-height:120%;opacity:1&quot;&gt;Turbo译码&lt;br/&gt;&lt;/font&gt;&lt;/div&gt;" tags="背景" id="28">
          <mxCell style="verticalAlign=middle;align=center;overflow=width;vsdxID=55;fillColor=none;gradientColor=none;shape=stencil(nZBLDoAgDERP0z3SIyjew0SURgSD+Lu9kMZoXLhwN9O+tukAlrNpJg1SzDH4QW/URgNYgZTkjA4UkwJUgGXng+6DX1zLfmoymdXo17xh5zmRJ6Q42BWCfc2oJfdAr+Yv+AP9Cb7OJ3H/2JG1HNGz/84klThPVCc=);strokeColor=#000000;points=[[1,0.5,0],[0.5,0,0],[0.5,0.5,0],[0.5,0.5,0]];labelBackgroundColor=none;rounded=0;html=1;whiteSpace=wrap;" parent="1" vertex="1">
            <mxGeometry x="1224" y="866" width="72" height="54" as="geometry" />
          </mxCell>
        </UserObject>
        <UserObject label="&lt;div style=&quot;font-size: 1px&quot;&gt;&lt;font style=&quot;font-size:14.11px;font-family:SimSun;color:#000000;direction:ltr;letter-spacing:0px;line-height:120%;opacity:1&quot;&gt;信道解交织&lt;br/&gt;&lt;/font&gt;&lt;/div&gt;" tags="背景" id="29">
          <mxCell style="verticalAlign=middle;align=center;overflow=width;vsdxID=56;fillColor=none;gradientColor=none;shape=stencil(nZBLDoAgDERP0z3SIyjew0SURgSD+Lu9kMZoXLhwN9O+tukAlrNpJg1SzDH4QW/URgNYgZTkjA4UkwJUgGXng+6DX1zLfmoymdXo17xh5zmRJ6Q42BWCfc2oJfdAr+Yv+AP9Cb7OJ3H/2JG1HNGz/84klThPVCc=);strokeColor=#000000;points=[[1,0.5,0],[0.5,0,0],[0.5,0.5,0],[0.5,0.5,0]];labelBackgroundColor=none;rounded=0;html=1;whiteSpace=wrap;" parent="1" vertex="1">
            <mxGeometry x="1060" y="866" width="72" height="54" as="geometry" />
          </mxCell>
        </UserObject>
        <UserObject label="&lt;div style=&quot;font-size: 1px&quot;&gt;&lt;font style=&quot;font-size:14.11px;font-family:SimSun;color:#000000;direction:ltr;letter-spacing:0px;line-height:120%;opacity:1&quot;&gt;解扰&lt;br/&gt;&lt;/font&gt;&lt;/div&gt;" tags="背景" id="30">
          <mxCell style="verticalAlign=middle;align=center;overflow=width;vsdxID=59;fillColor=none;gradientColor=none;shape=stencil(nZBLDoAgDERP0z3SIyjew0SURgSD+Lu9kMZoXLhwN9O+tukAlrNpJg1SzDH4QW/URgNYgZTkjA4UkwJUgGXng+6DX1zLfmoymdXo17xh5zmRJ6Q42BWCfc2oJfdAr+Yv+AP9Cb7OJ3H/2JG1HNGz/84klThPVCc=);strokeColor=#000000;points=[[1,0.5,0],[0.5,0,0],[0.5,0.5,0],[0.5,0.5,0]];labelBackgroundColor=none;rounded=0;html=1;whiteSpace=wrap;" parent="1" vertex="1">
            <mxGeometry x="1391" y="866" width="72" height="54" as="geometry" />
          </mxCell>
        </UserObject>
        <UserObject label="&lt;div style=&quot;font-size: 1px&quot;&gt;&lt;font style=&quot;font-size:14.11px;font-family:SimSun;color:#000000;direction:ltr;letter-spacing:0px;line-height:120%;opacity:1&quot;&gt;帧控制数据输出&lt;br/&gt;&lt;/font&gt;&lt;/div&gt;" tags="背景" id="31">
          <mxCell style="verticalAlign=middle;align=center;overflow=width;vsdxID=65;fillColor=none;gradientColor=none;shape=stencil(nZBLDoAgDERP0z3SIyjew0SURgSD+Lu9kMZoXLhwN9O+tukAlrNpJg1SzDH4QW/URgNYgZTkjA4UkwJUgGXng+6DX1zLfmoymdXo17xh5zmRJ6Q42BWCfc2oJfdAr+Yv+AP9Cb7OJ3H/2JG1HNGz/84klThPVCc=);strokeColor=none;points=[];labelBackgroundColor=none;rounded=0;html=1;whiteSpace=wrap;" parent="1" vertex="1">
            <mxGeometry x="1489" y="729" width="87" height="37" as="geometry" />
          </mxCell>
        </UserObject>
        <UserObject label="&lt;div style=&quot;font-size: 1px&quot;&gt;&lt;font style=&quot;font-size:14.11px;font-family:SimSun;color:#000000;direction:ltr;letter-spacing:0px;line-height:120%;opacity:1&quot;&gt;载荷数据输出&lt;br/&gt;&lt;/font&gt;&lt;/div&gt;" tags="背景" id="32">
          <mxCell style="verticalAlign=middle;align=center;overflow=width;vsdxID=66;fillColor=none;gradientColor=none;shape=stencil(nZBLDoAgDERP0z3SIyjew0SURgSD+Lu9kMZoXLhwN9O+tukAlrNpJg1SzDH4QW/URgNYgZTkjA4UkwJUgGXng+6DX1zLfmoymdXo17xh5zmRJ6Q42BWCfc2oJfdAr+Yv+AP9Cb7OJ3H/2JG1HNGz/84klThPVCc=);strokeColor=none;points=[];labelBackgroundColor=none;rounded=0;html=1;whiteSpace=wrap;" parent="1" vertex="1">
            <mxGeometry x="1495" y="843" width="72" height="37" as="geometry" />
          </mxCell>
        </UserObject>
        <UserObject label="&lt;div style=&quot;font-size: 1px&quot;&gt;&lt;font style=&quot;font-size:14.11px;font-family:SimSun;color:#000000;direction:ltr;letter-spacing:0px;line-height:120%;opacity:1&quot;&gt;电力线信道&lt;br/&gt;&lt;/font&gt;&lt;/div&gt;" tags="背景" id="33">
          <mxCell style="verticalAlign=middle;align=center;overflow=width;vsdxID=67;fillColor=none;gradientColor=none;shape=stencil(nZBLDoAgDERP0z3SIyjew0SURgSD+Lu9kMZoXLhwN9O+tukAlrNpJg1SzDH4QW/URgNYgZTkjA4UkwJUgGXng+6DX1zLfmoymdXo17xh5zmRJ6Q42BWCfc2oJfdAr+Yv+AP9Cb7OJ3H/2JG1HNGz/84klThPVCc=);strokeColor=none;points=[];labelBackgroundColor=none;rounded=0;html=1;whiteSpace=wrap;" parent="1" vertex="1">
            <mxGeometry x="752" y="536" width="87" height="37" as="geometry" />
          </mxCell>
        </UserObject>
        <UserObject label="&lt;div style=&quot;font-size: 1px&quot;&gt;&lt;font style=&quot;font-size:11.29px;font-family:SimSun;color:#000000;direction:ltr;letter-spacing:0px;line-height:120%;opacity:1&quot;&gt;16字节&lt;br&gt;&lt;/font&gt;&lt;/div&gt;" tags="背景" id="34">
          <mxCell style="verticalAlign=middle;align=center;overflow=width;vsdxID=68;fillColor=none;gradientColor=none;shape=stencil(nZBLDoAgDERP0z3SIyjew0SURgSD+Lu9kMZoXLhwN9O+tukAlrNpJg1SzDH4QW/URgNYgZTkjA4UkwJUgGXng+6DX1zLfmoymdXo17xh5zmRJ6Q42BWCfc2oJfdAr+Yv+AP9Cb7OJ3H/2JG1HNGz/84klThPVCc=);strokeColor=none;points=[];labelBackgroundColor=none;rounded=0;html=1;whiteSpace=wrap;" parent="1" vertex="1">
            <mxGeometry x="140" y="338" width="53" height="22" as="geometry" />
          </mxCell>
        </UserObject>
        <UserObject label="&lt;div style=&quot;&quot;&gt;&lt;p style=&quot;text-align: center; margin: 0px; text-indent: 0px; vertical-align: middle; direction: ltr;&quot;&gt;&lt;font style=&quot;direction: ltr; line-height: 120%; opacity: 1;&quot;&gt;&lt;font face=&quot;SimSun&quot;&gt;32字节(前16字节信息码，后16字节校验码)&lt;/font&gt;&lt;br&gt;&lt;/font&gt;&lt;/p&gt;&lt;/div&gt;" tags="背景" id="35">
          <mxCell style="verticalAlign=middle;align=center;overflow=width;vsdxID=70;fillColor=none;gradientColor=none;shape=stencil(nZBLDoAgDERP0z3SIyjew0SURgSD+Lu9kMZoXLhwN9O+tukAlrNpJg1SzDH4QW/URgNYgZTkjA4UkwJUgGXng+6DX1zLfmoymdXo17xh5zmRJ6Q42BWCfc2oJfdAr+Yv+AP9Cb7OJ3H/2JG1HNGz/84klThPVCc=);strokeColor=none;points=[];labelBackgroundColor=none;rounded=0;html=1;whiteSpace=wrap;" parent="1" vertex="1">
            <mxGeometry x="280" y="339" width="90" height="43" as="geometry" />
          </mxCell>
        </UserObject>
        <UserObject label="&lt;div style=&quot;font-size: 1px&quot;&gt;&lt;font style=&quot;font-size:11.29px;font-family:SimSun;color:#000000;direction:ltr;letter-spacing:0px;line-height:120%;opacity:1&quot;&gt;32字节&lt;br&gt;&lt;/font&gt;&lt;/div&gt;" tags="背景" id="36">
          <mxCell style="verticalAlign=middle;align=center;overflow=width;vsdxID=71;fillColor=none;gradientColor=none;shape=stencil(nZBLDoAgDERP0z3SIyjew0SURgSD+Lu9kMZoXLhwN9O+tukAlrNpJg1SzDH4QW/URgNYgZTkjA4UkwJUgGXng+6DX1zLfmoymdXo17xh5zmRJ6Q42BWCfc2oJfdAr+Yv+AP9Cb7OJ3H/2JG1HNGz/84klThPVCc=);strokeColor=none;points=[];labelBackgroundColor=none;rounded=0;html=1;whiteSpace=wrap;" parent="1" vertex="1">
            <mxGeometry x="458" y="337" width="53" height="22" as="geometry" />
          </mxCell>
        </UserObject>
        <UserObject label="&lt;div style=&quot;font-size: 1px&quot;&gt;&lt;font style=&quot;font-size:11.29px;font-family:SimSun;color:#000000;direction:ltr;letter-spacing:0px;line-height:120%;opacity:1&quot;&gt;(2×可用子载波×FC符号个数)bit&lt;br/&gt;&lt;/font&gt;&lt;/div&gt;" tags="背景" id="37">
          <mxCell style="verticalAlign=middle;align=center;overflow=width;vsdxID=72;fillColor=none;gradientColor=none;shape=stencil(nZBLDoAgDERP0z3SIyjew0SURgSD+Lu9kMZoXLhwN9O+tukAlrNpJg1SzDH4QW/URgNYgZTkjA4UkwJUgGXng+6DX1zLfmoymdXo17xh5zmRJ6Q42BWCfc2oJfdAr+Yv+AP9Cb7OJ3H/2JG1HNGz/84klThPVCc=);strokeColor=none;points=[];labelBackgroundColor=none;rounded=0;html=1;whiteSpace=wrap;" parent="1" vertex="1">
            <mxGeometry x="624" y="280" width="72" height="54" as="geometry" />
          </mxCell>
        </UserObject>
        <UserObject label="&lt;div style=&quot;font-size: 11px;&quot;&gt;&lt;p style=&quot;text-align: center; margin: 0px; text-indent: 0px; vertical-align: middle; direction: ltr; font-size: 11px;&quot;&gt;&lt;font style=&quot;font-size: 11px; font-family: SimSun; color: rgb(0, 0, 0); direction: ltr; letter-spacing: 0px; line-height: 120%; opacity: 1;&quot;&gt;长度为&lt;/font&gt;&lt;font style=&quot;font-size: 11px; font-family: &amp;quot;Times New Roman&amp;quot;; color: rgb(0, 0, 0); direction: ltr; letter-spacing: 0px; line-height: 120%; opacity: 1;&quot;&gt;PB16&lt;/font&gt;&lt;font style=&quot;font-size: 11px; font-family: SimSun; color: rgb(0, 0, 0); direction: ltr; letter-spacing: 0px; line-height: 120%; opacity: 1;&quot;&gt;，码率为&lt;/font&gt;&lt;font style=&quot;font-size: 11px; font-family: &amp;quot;Times New Roman&amp;quot;; color: rgb(0, 0, 0); direction: ltr; letter-spacing: 0px; line-height: 120%; opacity: 1;&quot;&gt;1/2&lt;/font&gt;&lt;font style=&quot;font-size: 7px; font-family: Themed; color: rgb(0, 0, 0); direction: ltr; letter-spacing: 0px; line-height: 120%; opacity: 1;&quot;&gt;&lt;br style=&quot;font-size: 7px;&quot;&gt;&lt;/font&gt;&lt;/p&gt;&lt;/div&gt;" tags="背景" id="38">
          <mxCell style="verticalAlign=middle;align=center;overflow=width;vsdxID=73;fillColor=none;gradientColor=none;shape=stencil(nZBLDoAgDERP0z3SIyjew0SURgSD+Lu9kMZoXLhwN9O+tukAlrNpJg1SzDH4QW/URgNYgZTkjA4UkwJUgGXng+6DX1zLfmoymdXo17xh5zmRJ6Q42BWCfc2oJfdAr+Yv+AP9Cb7OJ3H/2JG1HNGz/84klThPVCc=);strokeColor=none;points=[];labelBackgroundColor=none;rounded=0;html=1;whiteSpace=wrap;fontSize=7;" parent="1" vertex="1">
            <mxGeometry x="200" y="360" width="80" height="30" as="geometry" />
          </mxCell>
        </UserObject>
        <UserObject label="&lt;div style=&quot;font-size: 1px&quot;&gt;&lt;font style=&quot;font-size:11.29px;font-family:SimSun;color:#000000;direction:ltr;letter-spacing:0px;line-height:120%;opacity:1&quot;&gt;PPDU帧&lt;br/&gt;&lt;/font&gt;&lt;/div&gt;" tags="背景" id="39">
          <mxCell style="verticalAlign=middle;align=center;overflow=width;vsdxID=79;fillColor=none;gradientColor=none;shape=stencil(nZBLDoAgDERP0z3SIyjew0SURgSD+Lu9kMZoXLhwN9O+tukAlrNpJg1SzDH4QW/URgNYgZTkjA4UkwJUgGXng+6DX1zLfmoymdXo17xh5zmRJ6Q42BWCfc2oJfdAr+Yv+AP9Cb7OJ3H/2JG1HNGz/84klThPVCc=);strokeColor=none;points=[];labelBackgroundColor=none;rounded=0;html=1;whiteSpace=wrap;" parent="1" vertex="1">
            <mxGeometry x="1418" y="306" width="53" height="33" as="geometry" />
          </mxCell>
        </UserObject>
        <UserObject label="&lt;div style=&quot;font-size: 1px&quot;&gt;&lt;p style=&quot;text-align:justify;margin-left:0;margin-right:0;margin-top:0px;margin-bottom:0px;text-indent:0;vertical-align:middle;direction:ltr;&quot;&gt;&lt;font style=&quot;font-size:11.29px;font-family:SimSun;color:#000000;direction:ltr;letter-spacing:0px;line-height:120%;opacity:1&quot;&gt;时域&lt;/font&gt;&lt;font style=&quot;font-size:11.29px;font-family:Times New Roman;color:#000000;direction:ltr;letter-spacing:0px;line-height:120%;opacity:1&quot;&gt;25MHz&lt;/font&gt;&lt;font style=&quot;font-size:11.29px;font-family:SimSun;color:#000000;direction:ltr;letter-spacing:0px;line-height:120%;opacity:1&quot;&gt;的时钟采样率&lt;br/&gt;&lt;/font&gt;&lt;/p&gt;&lt;/div&gt;" tags="背景" id="40">
          <mxCell style="verticalAlign=middle;align=center;overflow=width;vsdxID=80;fillColor=none;gradientColor=none;shape=stencil(nZBLDoAgDERP0z3SIyjew0SURgSD+Lu9kMZoXLhwN9O+tukAlrNpJg1SzDH4QW/URgNYgZTkjA4UkwJUgGXng+6DX1zLfmoymdXo17xh5zmRJ6Q42BWCfc2oJfdAr+Yv+AP9Cb7OJ3H/2JG1HNGz/84klThPVCc=);strokeColor=none;points=[];labelBackgroundColor=none;rounded=0;html=1;whiteSpace=wrap;" parent="1" vertex="1">
            <mxGeometry x="920" y="284" width="155" height="25" as="geometry" />
          </mxCell>
        </UserObject>
        <UserObject label="&lt;div style=&quot;font-size: 1px&quot;&gt;&lt;font style=&quot;font-size:11.29px;font-family:SimSun;color:#000000;direction:ltr;letter-spacing:0px;line-height:120%;opacity:1&quot;&gt;1024点取实部&lt;br/&gt;&lt;/font&gt;&lt;/div&gt;" tags="背景" id="41">
          <mxCell style="verticalAlign=middle;align=center;overflow=width;vsdxID=82;fillColor=none;gradientColor=none;shape=stencil(nZBLDoAgDERP0z3SIyjew0SURgSD+Lu9kMZoXLhwN9O+tukAlrNpJg1SzDH4QW/URgNYgZTkjA4UkwJUgGXng+6DX1zLfmoymdXo17xh5zmRJ6Q42BWCfc2oJfdAr+Yv+AP9Cb7OJ3H/2JG1HNGz/84klThPVCc=);strokeColor=none;points=[];labelBackgroundColor=none;rounded=0;html=1;whiteSpace=wrap;" parent="1" vertex="1">
            <mxGeometry x="1023" y="339" width="55" height="32" as="geometry" />
          </mxCell>
        </UserObject>
        <UserObject label="&lt;div style=&quot;font-size: 1px&quot;&gt;&lt;font style=&quot;font-size:11.29px;font-family:SimSun;color:#000000;direction:ltr;letter-spacing:0px;line-height:120%;opacity:1&quot;&gt;OFDM符号&lt;br&gt;&lt;/font&gt;&lt;/div&gt;&lt;div style=&quot;font-size: 1px&quot;&gt;&lt;font style=&quot;font-size:11.29px;font-family:SimSun;color:#000000;direction:ltr;letter-spacing:0px;line-height:120%;opacity:1&quot;&gt;1024+458点&lt;/font&gt;&lt;/div&gt;" tags="背景" id="42">
          <mxCell style="verticalAlign=middle;align=center;overflow=width;vsdxID=83;fillColor=none;gradientColor=none;shape=stencil(nZBLDoAgDERP0z3SIyjew0SURgSD+Lu9kMZoXLhwN9O+tukAlrNpJg1SzDH4QW/URgNYgZTkjA4UkwJUgGXng+6DX1zLfmoymdXo17xh5zmRJ6Q42BWCfc2oJfdAr+Yv+AP9Cb7OJ3H/2JG1HNGz/84klThPVCc=);strokeColor=none;points=[];labelBackgroundColor=none;rounded=0;html=1;whiteSpace=wrap;" parent="1" vertex="1">
            <mxGeometry x="1220" y="337" width="72" height="33" as="geometry" />
          </mxCell>
        </UserObject>
        <UserObject label="&lt;div style=&quot;font-size: 11px;&quot;&gt;&lt;p style=&quot;margin: 0px; text-indent: 0px; vertical-align: middle; direction: ltr; font-size: 11px;&quot;&gt;&lt;font style=&quot;font-size: 11px; font-family: &amp;quot;Times New Roman&amp;quot;; color: rgb(0, 0, 0); direction: ltr; letter-spacing: 0px; line-height: 120%; opacity: 1;&quot;&gt;PB72&lt;/font&gt;&lt;font style=&quot;font-size: 11px; font-family: &amp;quot;Times New Roman&amp;quot;; color: rgb(0, 0, 0); direction: ltr; letter-spacing: 0px; line-height: 120%; opacity: 1;&quot;&gt;/&lt;/font&gt;&lt;font style=&quot;font-size: 11px; font-family: &amp;quot;Times New Roman&amp;quot;; color: rgb(0, 0, 0); direction: ltr; letter-spacing: 0px; line-height: 120%; opacity: 1;&quot;&gt;PB136&lt;/font&gt;&lt;font style=&quot;font-size: 11px; font-family: &amp;quot;Times New Roman&amp;quot;; color: rgb(0, 0, 0); direction: ltr; letter-spacing: 0px; line-height: 120%; opacity: 1;&quot;&gt;/&lt;/font&gt;&lt;font style=&quot;font-size: 11px; font-family: &amp;quot;Times New Roman&amp;quot;; color: rgb(0, 0, 0); direction: ltr; letter-spacing: 0px; line-height: 120%; opacity: 1;&quot;&gt;PB264&lt;/font&gt;&lt;/p&gt;&lt;p style=&quot;margin: 0px; text-indent: 0px; vertical-align: middle; direction: ltr; font-size: 11px;&quot;&gt;&lt;font style=&quot;font-size: 11px; font-family: &amp;quot;Times New Roman&amp;quot;; color: rgb(0, 0, 0); direction: ltr; letter-spacing: 0px; line-height: 120%; opacity: 1;&quot;&gt;(&lt;/font&gt;&lt;font style=&quot;font-size: 11px; font-family: &amp;quot;Times New Roman&amp;quot;; color: rgb(0, 0, 0); direction: ltr; letter-spacing: 0px; line-height: 120%; opacity: 1;&quot;&gt;1/2&lt;/font&gt;&lt;font style=&quot;font-size: 11px; font-family: SimSun; color: rgb(0, 0, 0); direction: ltr; letter-spacing: 0px; line-height: 120%; opacity: 1;&quot;&gt;码率&lt;/font&gt;&lt;font style=&quot;font-size: 11px; font-family: &amp;quot;Times New Roman&amp;quot;; color: rgb(0, 0, 0); direction: ltr; letter-spacing: 0px; line-height: 120%; opacity: 1;&quot;&gt;)&lt;/font&gt;&lt;font style=&quot;font-size: 11px; font-family: SimSun; color: rgb(0, 0, 0); direction: ltr; letter-spacing: 0px; line-height: 120%; opacity: 1;&quot;&gt;，&lt;/font&gt;&lt;font style=&quot;font-size: 11px; font-family: &amp;quot;Times New Roman&amp;quot;; color: rgb(0, 0, 0); direction: ltr; letter-spacing: 0px; line-height: 120%; opacity: 1;&quot;&gt;PB520&lt;/font&gt;&lt;font style=&quot;font-size: 11px; font-family: &amp;quot;Times New Roman&amp;quot;; color: rgb(0, 0, 0); direction: ltr; letter-spacing: 0px; line-height: 120%; opacity: 1;&quot;&gt;(&lt;/font&gt;&lt;font style=&quot;font-size: 11px; font-family: &amp;quot;Times New Roman&amp;quot;; color: rgb(0, 0, 0); direction: ltr; letter-spacing: 0px; line-height: 120%; opacity: 1;&quot;&gt;1/2&lt;/font&gt;&lt;font style=&quot;font-size: 11px; font-family: SimSun; color: rgb(0, 0, 0); direction: ltr; letter-spacing: 0px; line-height: 120%; opacity: 1;&quot;&gt;码率和&lt;/font&gt;&lt;font style=&quot;font-size: 11px; font-family: &amp;quot;Times New Roman&amp;quot;; color: rgb(0, 0, 0); direction: ltr; letter-spacing: 0px; line-height: 120%; opacity: 1;&quot;&gt;16/18&lt;/font&gt;&lt;font style=&quot;font-size: 11px; font-family: SimSun; color: rgb(0, 0, 0); direction: ltr; letter-spacing: 0px; line-height: 120%; opacity: 1;&quot;&gt;码率&lt;/font&gt;&lt;font style=&quot;font-size: 11px; font-family: &amp;quot;Times New Roman&amp;quot;; color: rgb(0, 0, 0); direction: ltr; letter-spacing: 0px; line-height: 120%; opacity: 1;&quot;&gt;)&lt;/font&gt;&lt;font style=&quot;font-size:11.29px;font-family:Themed;color:#000000;direction:ltr;letter-spacing:0px;line-height:120%;opacity:1&quot;&gt;&lt;br&gt;&lt;/font&gt;&lt;/p&gt;&lt;/div&gt;" tags="背景" id="43">
          <mxCell style="verticalAlign=middle;align=center;overflow=width;vsdxID=85;fillColor=none;gradientColor=none;shape=stencil(nZBLDoAgDERP0z3SIyjew0SURgSD+Lu9kMZoXLhwN9O+tukAlrNpJg1SzDH4QW/URgNYgZTkjA4UkwJUgGXng+6DX1zLfmoymdXo17xh5zmRJ6Q42BWCfc2oJfdAr+Yv+AP9Cb7OJ3H/2JG1HNGz/84klThPVCc=);strokeColor=none;points=[];labelBackgroundColor=none;rounded=0;html=1;whiteSpace=wrap;" parent="1" vertex="1">
            <mxGeometry x="350" y="462" width="110" height="68" as="geometry" />
          </mxCell>
        </UserObject>
        <UserObject label="&lt;div style=&quot;font-size: 1px&quot;&gt;&lt;font style=&quot;font-size:11.29px;font-family:SimSun;color:#000000;direction:ltr;letter-spacing:0px;line-height:120%;opacity:1&quot;&gt;FC编码&lt;br/&gt;&lt;/font&gt;&lt;/div&gt;" tags="背景" id="45">
          <mxCell style="verticalAlign=middle;align=center;overflow=width;vsdxID=91;fillColor=none;gradientColor=none;shape=stencil(nZBLDoAgDERP0z3SIyjew0SURgSD+Lu9kMZoXLhwN9O+tukAlrNpJg1SzDH4QW/URgNYgZTkjA4UkwJUgGXng+6DX1zLfmoymdXo17xh5zmRJ6Q42BWCfc2oJfdAr+Yv+AP9Cb7OJ3H/2JG1HNGz/84klThPVCc=);strokeColor=none;points=[];labelBackgroundColor=none;rounded=0;html=1;whiteSpace=wrap;" parent="1" vertex="1">
            <mxGeometry x="260" y="270" width="46" height="13" as="geometry" />
          </mxCell>
        </UserObject>
        <UserObject label="&lt;div style=&quot;font-size: 1px&quot;&gt;&lt;font style=&quot;font-size:11.29px;font-family:SimSun;color:#000000;direction:ltr;letter-spacing:0px;line-height:120%;opacity:1&quot;&gt;载荷数据编码&lt;br/&gt;&lt;/font&gt;&lt;/div&gt;" tags="背景" id="47">
          <mxCell style="verticalAlign=middle;align=center;overflow=width;vsdxID=95;fillColor=none;gradientColor=none;shape=stencil(nZBLDoAgDERP0z3SIyjew0SURgSD+Lu9kMZoXLhwN9O+tukAlrNpJg1SzDH4QW/URgNYgZTkjA4UkwJUgGXng+6DX1zLfmoymdXo17xh5zmRJ6Q42BWCfc2oJfdAr+Yv+AP9Cb7OJ3H/2JG1HNGz/84klThPVCc=);strokeColor=none;points=[];labelBackgroundColor=none;rounded=0;html=1;whiteSpace=wrap;" parent="1" vertex="1">
            <mxGeometry x="242" y="510" width="87" height="13" as="geometry" />
          </mxCell>
        </UserObject>
        <UserObject label="" tags="背景" id="48">
          <mxCell style="vsdxID=96;fillColor=none;gradientColor=none;shape=stencil(nZBLDoAgDERP0z3SIyjew0SURgSD+Lu9kMZoXLhwN9O+tukAlrNpJg1SzDH4QW/URgNYgZTkjA4UkwJUgGXng+6DX1zLfmoymdXo17xh5zmRJ6Q42BWCfc2oJfdAr+Yv+AP9Cb7OJ3H/2JG1HNGz/84klThPVCc=);dashed=1;strokeColor=#000000;points=[[1,0.5,0],[0.5,0,0],[0.5,0.5,0],[0.5,0.5,0]];labelBackgroundColor=none;rounded=0;html=1;whiteSpace=wrap;" parent="1" vertex="1">
            <mxGeometry x="1019" y="740" width="456" height="88" as="geometry" />
          </mxCell>
        </UserObject>
        <UserObject label="" tags="背景" id="49">
          <mxCell style="vsdxID=99;fillColor=none;gradientColor=none;shape=stencil(nZBLDoAgDERP0z3SIyjew0SURgSD+Lu9kMZoXLhwN9O+tukAlrNpJg1SzDH4QW/URgNYgZTkjA4UkwJUgGXng+6DX1zLfmoymdXo17xh5zmRJ6Q42BWCfc2oJfdAr+Yv+AP9Cb7OJ3H/2JG1HNGz/84klThPVCc=);dashed=1;strokeColor=#000000;points=[[1,0.5,0],[0.5,0,0],[0.5,0.5,0],[0.5,0.5,0]];labelBackgroundColor=none;rounded=0;html=1;whiteSpace=wrap;" parent="1" vertex="1">
            <mxGeometry x="891" y="840" width="592" height="88" as="geometry" />
          </mxCell>
        </UserObject>
        <UserObject label="&lt;div style=&quot;font-size: 1px&quot;&gt;&lt;font style=&quot;font-size:11.29px;font-family:SimSun;color:#000000;direction:ltr;letter-spacing:0px;line-height:120%;opacity:1&quot;&gt;FC译码&lt;br/&gt;&lt;/font&gt;&lt;/div&gt;" tags="背景" id="50">
          <mxCell style="verticalAlign=middle;align=center;overflow=width;vsdxID=100;fillColor=none;gradientColor=none;shape=stencil(nZBLDoAgDERP0z3SIyjew0SURgSD+Lu9kMZoXLhwN9O+tukAlrNpJg1SzDH4QW/URgNYgZTkjA4UkwJUgGXng+6DX1zLfmoymdXo17xh5zmRJ6Q42BWCfc2oJfdAr+Yv+AP9Cb7OJ3H/2JG1HNGz/84klThPVCc=);strokeColor=none;points=[];labelBackgroundColor=none;rounded=0;html=1;whiteSpace=wrap;" parent="1" vertex="1">
            <mxGeometry x="1311" y="725" width="46" height="13" as="geometry" />
          </mxCell>
        </UserObject>
        <UserObject label="&lt;div style=&quot;font-size: 1px&quot;&gt;&lt;font style=&quot;font-size:11.29px;font-family:SimSun;color:#000000;direction:ltr;letter-spacing:0px;line-height:120%;opacity:1&quot;&gt;载荷数据译码&lt;br/&gt;&lt;/font&gt;&lt;/div&gt;" tags="背景" id="51">
          <mxCell style="verticalAlign=middle;align=center;overflow=width;vsdxID=101;fillColor=none;gradientColor=none;shape=stencil(nZBLDoAgDERP0z3SIyjew0SURgSD+Lu9kMZoXLhwN9O+tukAlrNpJg1SzDH4QW/URgNYgZTkjA4UkwJUgGXng+6DX1zLfmoymdXo17xh5zmRJ6Q42BWCfc2oJfdAr+Yv+AP9Cb7OJ3H/2JG1HNGz/84klThPVCc=);strokeColor=none;points=[];labelBackgroundColor=none;rounded=0;html=1;whiteSpace=wrap;" parent="1" vertex="1">
            <mxGeometry x="1299" y="933" width="87" height="13" as="geometry" />
          </mxCell>
        </UserObject>
        <UserObject label="&lt;div style=&quot;font-size: 1px&quot;&gt;&lt;font style=&quot;font-size:11.29px;font-family:SimSun;color:#000000;direction:ltr;letter-spacing:0px;line-height:120%;opacity:1&quot;&gt;BPSK/QPSK/16QAM&lt;br/&gt;&lt;/font&gt;&lt;/div&gt;" tags="背景" id="52">
          <mxCell style="verticalAlign=middle;align=center;overflow=width;vsdxID=103;fillColor=none;gradientColor=none;shape=stencil(nZBLDoAgDERP0z3SIyjew0SURgSD+Lu9kMZoXLhwN9O+tukAlrNpJg1SzDH4QW/URgNYgZTkjA4UkwJUgGXng+6DX1zLfmoymdXo17xh5zmRJ6Q42BWCfc2oJfdAr+Yv+AP9Cb7OJ3H/2JG1HNGz/84klThPVCc=);strokeColor=none;points=[];labelBackgroundColor=none;rounded=0;html=1;whiteSpace=wrap;" parent="1" vertex="1">
            <mxGeometry x="734" y="361" width="104" height="13" as="geometry" />
          </mxCell>
        </UserObject>
        <UserObject label="&lt;div style=&quot;font-size: 1px&quot;&gt;&lt;font style=&quot;font-size:11.29px;font-family:SimSun;color:#000000;direction:ltr;letter-spacing:0px;line-height:120%;opacity:1&quot;&gt;I+Q&lt;br/&gt;&lt;/font&gt;&lt;/div&gt;" tags="背景" id="53">
          <mxCell style="verticalAlign=middle;align=center;overflow=width;vsdxID=104;fillColor=none;gradientColor=none;shape=stencil(nZBLDoAgDERP0z3SIyjew0SURgSD+Lu9kMZoXLhwN9O+tukAlrNpJg1SzDH4QW/URgNYgZTkjA4UkwJUgGXng+6DX1zLfmoymdXo17xh5zmRJ6Q42BWCfc2oJfdAr+Yv+AP9Cb7OJ3H/2JG1HNGz/84klThPVCc=);strokeColor=none;points=[];labelBackgroundColor=none;rounded=0;html=1;whiteSpace=wrap;" parent="1" vertex="1">
            <mxGeometry x="715" y="337" width="31" height="13" as="geometry" />
          </mxCell>
        </UserObject>
        <UserObject label="&lt;div style=&quot;font-size: 1px&quot;&gt;&lt;font style=&quot;font-size:11.29px;font-family:SimSun;color:#000000;direction:ltr;letter-spacing:0px;line-height:120%;opacity:1&quot;&gt;串转并&lt;br&gt;1024复数&lt;/font&gt;&lt;/div&gt;&lt;div style=&quot;font-size: 1px&quot;&gt;&lt;font style=&quot;font-size:11.29px;font-family:SimSun;color:#000000;direction:ltr;letter-spacing:0px;line-height:120%;opacity:1&quot;&gt;(归一化)&lt;br&gt;&lt;/font&gt;&lt;/div&gt;" tags="背景" id="54">
          <mxCell style="verticalAlign=middle;align=center;overflow=width;vsdxID=105;fillColor=none;gradientColor=none;shape=stencil(nZBLDoAgDERP0z3SIyjew0SURgSD+Lu9kMZoXLhwN9O+tukAlrNpJg1SzDH4QW/URgNYgZTkjA4UkwJUgGXng+6DX1zLfmoymdXo17xh5zmRJ6Q42BWCfc2oJfdAr+Yv+AP9Cb7OJ3H/2JG1HNGz/84klThPVCc=);strokeColor=none;points=[];labelBackgroundColor=none;rounded=0;html=1;whiteSpace=wrap;" parent="1" vertex="1">
            <mxGeometry x="860" y="339" width="72" height="43" as="geometry" />
          </mxCell>
        </UserObject>
        <UserObject label="&lt;div style=&quot;font-size: 1px&quot;&gt;&lt;font style=&quot;font-size:11.29px;font-family:SimSun;color:#000000;direction:ltr;letter-spacing:0px;line-height:120%;opacity:1&quot;&gt;串转并&lt;br/&gt;1024点&lt;br/&gt;&lt;/font&gt;&lt;/div&gt;" tags="背景" id="55">
          <mxCell style="verticalAlign=middle;align=center;overflow=width;vsdxID=106;fillColor=none;gradientColor=none;shape=stencil(nZBLDoAgDERP0z3SIyjew0SURgSD+Lu9kMZoXLhwN9O+tukAlrNpJg1SzDH4QW/URgNYgZTkjA4UkwJUgGXng+6DX1zLfmoymdXo17xh5zmRJ6Q42BWCfc2oJfdAr+Yv+AP9Cb7OJ3H/2JG1HNGz/84klThPVCc=);strokeColor=none;points=[];labelBackgroundColor=none;rounded=0;html=1;whiteSpace=wrap;" parent="1" vertex="1">
            <mxGeometry x="439" y="730" width="72" height="43" as="geometry" />
          </mxCell>
        </UserObject>
        <UserObject label="&lt;div style=&quot;font-size: 1px&quot;&gt;&lt;font style=&quot;font-size:14.11px;font-family:SimSun;color:#000000;direction:ltr;letter-spacing:0px;line-height:120%;opacity:1&quot;&gt;去CP&lt;br/&gt;&lt;/font&gt;&lt;/div&gt;" tags="背景" id="56">
          <mxCell style="verticalAlign=middle;align=center;overflow=width;vsdxID=107;fillColor=none;gradientColor=none;shape=stencil(nZBLDoAgDERP0z3SIyjew0SURgSD+Lu9kMZoXLhwN9O+tukAlrNpJg1SzDH4QW/URgNYgZTkjA4UkwJUgGXng+6DX1zLfmoymdXo17xh5zmRJ6Q42BWCfc2oJfdAr+Yv+AP9Cb7OJ3H/2JG1HNGz/84klThPVCc=);strokeColor=#000000;points=[[1,0.5,0],[0.5,0,0],[0.5,0.5,0],[0.5,0.5,0]];labelBackgroundColor=none;rounded=0;html=1;whiteSpace=wrap;" parent="1" vertex="1">
            <mxGeometry x="347" y="745" width="72" height="54" as="geometry" />
          </mxCell>
        </UserObject>
        <UserObject label="&lt;div style=&quot;font-size: 1px&quot;&gt;&lt;font style=&quot;font-size:11.29px;font-family:SimSun;color:#000000;direction:ltr;letter-spacing:0px;line-height:120%;opacity:1&quot;&gt;1024点复数&lt;br/&gt;&lt;/font&gt;&lt;/div&gt;" tags="背景" id="57">
          <mxCell style="verticalAlign=middle;align=center;overflow=width;vsdxID=109;fillColor=none;gradientColor=none;shape=stencil(nZBLDoAgDERP0z3SIyjew0SURgSD+Lu9kMZoXLhwN9O+tukAlrNpJg1SzDH4QW/URgNYgZTkjA4UkwJUgGXng+6DX1zLfmoymdXo17xh5zmRJ6Q42BWCfc2oJfdAr+Yv+AP9Cb7OJ3H/2JG1HNGz/84klThPVCc=);strokeColor=none;points=[];labelBackgroundColor=none;rounded=0;html=1;whiteSpace=wrap;" parent="1" vertex="1">
            <mxGeometry x="569" y="742" width="46" height="27" as="geometry" />
          </mxCell>
        </UserObject>
        <UserObject label="&lt;div style=&quot;font-size: 1px&quot;&gt;&lt;font style=&quot;font-size:14.11px;font-family:SimSun;color:#000000;direction:ltr;letter-spacing:0px;line-height:120%;opacity:1&quot;&gt;信道估计&lt;br/&gt;&lt;/font&gt;&lt;/div&gt;" tags="背景" id="58">
          <mxCell style="verticalAlign=middle;align=center;overflow=width;vsdxID=110;fillColor=none;gradientColor=none;shape=stencil(nZBLDoAgDERP0z3SIyjew0SURgSD+Lu9kMZoXLhwN9O+tukAlrNpJg1SzDH4QW/URgNYgZTkjA4UkwJUgGXng+6DX1zLfmoymdXo17xh5zmRJ6Q42BWCfc2oJfdAr+Yv+AP9Cb7OJ3H/2JG1HNGz/84klThPVCc=);strokeColor=#000000;points=[[1,0.5,0],[0.5,0,0],[0.5,0.5,0],[0.5,0.5,0]];labelBackgroundColor=none;rounded=0;html=1;whiteSpace=wrap;" parent="1" vertex="1">
            <mxGeometry x="703" y="864" width="72" height="54" as="geometry" />
          </mxCell>
        </UserObject>
        <UserObject label="&lt;div style=&quot;font-size: 1px&quot;&gt;&lt;font style=&quot;font-size:14.11px;font-family:SimSun;color:#000000;direction:ltr;letter-spacing:0px;line-height:120%;opacity:1&quot;&gt;星座点解映射&lt;br/&gt;&lt;/font&gt;&lt;/div&gt;" tags="背景" id="59">
          <mxCell style="verticalAlign=middle;align=center;overflow=width;vsdxID=114;fillColor=none;gradientColor=none;shape=stencil(nZBLDoAgDERP0z3SIyjew0SURgSD+Lu9kMZoXLhwN9O+tukAlrNpJg1SzDH4QW/URgNYgZTkjA4UkwJUgGXng+6DX1zLfmoymdXo17xh5zmRJ6Q42BWCfc2oJfdAr+Yv+AP9Cb7OJ3H/2JG1HNGz/84klThPVCc=);strokeColor=#000000;points=[[1,0.5,0],[0.5,0,0],[0.5,0.5,0],[0.5,0.5,0]];labelBackgroundColor=none;rounded=0;html=1;whiteSpace=wrap;" parent="1" vertex="1">
            <mxGeometry x="860" y="745" width="87" height="54" as="geometry" />
          </mxCell>
        </UserObject>
        <UserObject label="&lt;div style=&quot;font-size: 1px&quot;&gt;&lt;font style=&quot;font-size:11.29px;font-family:SimSun;color:#000000;direction:ltr;letter-spacing:0px;line-height:120%;opacity:1&quot;&gt;BPSK/QPSK/16QAM&lt;br/&gt;&lt;/font&gt;&lt;/div&gt;" tags="背景" id="60">
          <mxCell style="verticalAlign=middle;align=center;overflow=width;vsdxID=117;fillColor=none;gradientColor=none;shape=stencil(nZBLDoAgDERP0z3SIyjew0SURgSD+Lu9kMZoXLhwN9O+tukAlrNpJg1SzDH4QW/URgNYgZTkjA4UkwJUgGXng+6DX1zLfmoymdXo17xh5zmRJ6Q42BWCfc2oJfdAr+Yv+AP9Cb7OJ3H/2JG1HNGz/84klThPVCc=);strokeColor=none;points=[];labelBackgroundColor=none;rounded=0;html=1;whiteSpace=wrap;" parent="1" vertex="1">
            <mxGeometry x="851" y="799" width="104" height="13" as="geometry" />
          </mxCell>
        </UserObject>
        <UserObject label="&lt;div style=&quot;font-size: 1px&quot;&gt;&lt;font style=&quot;font-size:11.29px;font-family:SimSun;color:#000000;direction:ltr;letter-spacing:0px;line-height:120%;opacity:1&quot;&gt;I+Q&lt;br/&gt;&lt;/font&gt;&lt;/div&gt;" tags="背景" id="61">
          <mxCell style="verticalAlign=middle;align=center;overflow=width;vsdxID=118;fillColor=none;gradientColor=none;shape=stencil(nZBLDoAgDERP0z3SIyjew0SURgSD+Lu9kMZoXLhwN9O+tukAlrNpJg1SzDH4QW/URgNYgZTkjA4UkwJUgGXng+6DX1zLfmoymdXo17xh5zmRJ6Q42BWCfc2oJfdAr+Yv+AP9Cb7OJ3H/2JG1HNGz/84klThPVCc=);strokeColor=none;points=[];labelBackgroundColor=none;rounded=0;html=1;whiteSpace=wrap;" parent="1" vertex="1">
            <mxGeometry x="946" y="759" width="31" height="13" as="geometry" />
          </mxCell>
        </UserObject>
        <UserObject label="" tags="连接线" id="62">
          <mxCell style="vsdxID=116;edgeStyle=none;startArrow=none;endArrow=block;startSize=5;endSize=5;strokeColor=#000000;spacingTop=0;spacingBottom=0;spacingLeft=0;spacingRight=0;verticalAlign=middle;html=1;labelBackgroundColor=#ffffff;rounded=0;exitX=1;exitY=0.5;exitDx=0;exitDy=0;exitPerimeter=0;entryX=0;entryY=0.5;entryDx=0;entryDy=0;entryPerimeter=0;" parent="1" source="23" target="59" edge="1">
            <mxGeometry relative="1" as="geometry">
              <mxPoint as="offset" />
              <Array as="points" />
            </mxGeometry>
          </mxCell>
        </UserObject>
        <UserObject label="" tags="连接线" id="63">
          <mxCell style="vsdxID=63;edgeStyle=none;startArrow=none;endArrow=block;startSize=5;endSize=5;strokeColor=#000000;spacingTop=0;spacingBottom=0;spacingLeft=0;spacingRight=0;verticalAlign=middle;html=1;labelBackgroundColor=#ffffff;rounded=0;exitX=1;exitY=0.5;exitDx=0;exitDy=0;exitPerimeter=0;entryX=0;entryY=0.5;entryDx=0;entryDy=0;entryPerimeter=0;" parent="1" source="29" target="28" edge="1">
            <mxGeometry relative="1" as="geometry">
              <mxPoint as="offset" />
              <Array as="points" />
            </mxGeometry>
          </mxCell>
        </UserObject>
        <mxCell id="fi60-aAPyIgHAfr6_0F9-130" value="/4bit" style="edgeLabel;html=1;align=center;verticalAlign=middle;resizable=0;points=[];" parent="63" vertex="1" connectable="0">
          <mxGeometry x="0.1108" relative="1" as="geometry">
            <mxPoint as="offset" />
          </mxGeometry>
        </mxCell>
        <UserObject label="" tags="连接线" id="64">
          <mxCell style="vsdxID=62;edgeStyle=none;startArrow=none;endArrow=block;startSize=5;endSize=5;strokeColor=#000000;spacingTop=0;spacingBottom=0;spacingLeft=0;spacingRight=0;verticalAlign=middle;html=1;labelBackgroundColor=#ffffff;rounded=0;exitX=1;exitY=0.5;exitDx=0;exitDy=0;exitPerimeter=0;entryX=0;entryY=0.5;entryDx=0;entryDy=0;entryPerimeter=0;" parent="1" source="28" target="30" edge="1">
            <mxGeometry relative="1" as="geometry">
              <mxPoint x="-1" as="offset" />
              <Array as="points" />
            </mxGeometry>
          </mxCell>
        </UserObject>
        <mxCell id="fi60-aAPyIgHAfr6_0F9-129" value="/2bit" style="edgeLabel;html=1;align=center;verticalAlign=middle;resizable=0;points=[];" parent="64" vertex="1" connectable="0">
          <mxGeometry x="0.2211" y="1" relative="1" as="geometry">
            <mxPoint as="offset" />
          </mxGeometry>
        </mxCell>
        <mxCell id="65" parent="1" vertex="1">
          <mxGeometry x="991" y="772" as="geometry" />
        </mxCell>
        <UserObject label="" tags="连接线" id="66">
          <mxCell style="vsdxID=54;edgeStyle=none;startArrow=none;endArrow=block;startSize=5;endSize=5;strokeColor=#000000;spacingTop=0;spacingBottom=0;spacingLeft=0;spacingRight=0;verticalAlign=middle;html=1;labelBackgroundColor=#ffffff;rounded=0;entryX=0;entryY=0.5;entryDx=0;entryDy=0;entryPerimeter=0;" parent="1" source="65" target="27" edge="1">
            <mxGeometry relative="1" as="geometry">
              <mxPoint x="-1" as="offset" />
              <Array as="points">
                <mxPoint x="991" y="847.22" />
                <mxPoint x="839" y="847.22" />
                <mxPoint x="839" y="892.11" />
              </Array>
            </mxGeometry>
          </mxCell>
        </UserObject>
        <UserObject label="" tags="连接线" id="67">
          <mxCell style="vsdxID=41;edgeStyle=none;startArrow=none;endArrow=block;startSize=5;endSize=5;strokeColor=#000000;spacingTop=0;spacingBottom=0;spacingLeft=0;spacingRight=0;verticalAlign=middle;html=1;labelBackgroundColor=#ffffff;rounded=0;exitX=0.5;exitY=1;exitDx=0;exitDy=0;exitPerimeter=0;entryX=0.5;entryY=0;entryDx=0;entryDy=0;entryPerimeter=0;" parent="1" source="19" target="20" edge="1">
            <mxGeometry relative="1" as="geometry">
              <mxPoint x="10" as="offset" />
              <Array as="points" />
            </mxGeometry>
          </mxCell>
        </UserObject>
        <UserObject label="" tags="连接线" id="68">
          <mxCell style="vsdxID=37;edgeStyle=none;startArrow=none;endArrow=block;startSize=5;endSize=5;strokeColor=#000000;spacingTop=0;spacingBottom=0;spacingLeft=0;spacingRight=0;verticalAlign=middle;html=1;labelBackgroundColor=#ffffff;rounded=0;exitX=0.5;exitY=1;exitDx=0;exitDy=0;exitPerimeter=0;entryX=0.9733044733044733;entryY=0;entryDx=0;entryDy=0;entryPerimeter=0;" parent="1" source="18" target="17" edge="1">
            <mxGeometry relative="1" as="geometry">
              <mxPoint x="9" y="-1" as="offset" />
              <Array as="points" />
            </mxGeometry>
          </mxCell>
        </UserObject>
        <UserObject label="" tags="连接线" id="69">
          <mxCell style="vsdxID=30;edgeStyle=none;startArrow=none;endArrow=block;startSize=5;endSize=5;strokeColor=#000000;spacingTop=0;spacingBottom=0;spacingLeft=0;spacingRight=0;verticalAlign=middle;html=1;labelBackgroundColor=#ffffff;rounded=0;exitX=1;exitY=0.5;exitDx=0;exitDy=0;exitPerimeter=0;entryX=0;entryY=0.5;entryDx=0;entryDy=0;entryPerimeter=0;" parent="1" source="15" target="16" edge="1">
            <mxGeometry relative="1" as="geometry">
              <mxPoint as="offset" />
              <Array as="points" />
            </mxGeometry>
          </mxCell>
        </UserObject>
        <UserObject label="" tags="连接线" id="70">
          <mxCell style="vsdxID=29;edgeStyle=none;startArrow=none;endArrow=block;startSize=5;endSize=5;strokeColor=#000000;spacingTop=0;spacingBottom=0;spacingLeft=0;spacingRight=0;verticalAlign=middle;html=1;labelBackgroundColor=#ffffff;rounded=0;exitX=1;exitY=0.5;exitDx=0;exitDy=0;exitPerimeter=0;entryX=0;entryY=0.5;entryDx=0;entryDy=0;entryPerimeter=0;" parent="1" source="14" target="15" edge="1">
            <mxGeometry relative="1" as="geometry">
              <mxPoint x="-1" as="offset" />
              <Array as="points" />
            </mxGeometry>
          </mxCell>
        </UserObject>
        <UserObject label="" tags="连接线" id="71">
          <mxCell style="vsdxID=28;edgeStyle=none;startArrow=none;endArrow=block;startSize=5;endSize=5;strokeColor=#000000;spacingTop=0;spacingBottom=0;spacingLeft=0;spacingRight=0;verticalAlign=middle;html=1;labelBackgroundColor=#ffffff;rounded=0;exitX=1;exitY=0.5;exitDx=0;exitDy=0;exitPerimeter=0;entryX=0;entryY=0.5;entryDx=0;entryDy=0;entryPerimeter=0;" parent="1" source="13" target="14" edge="1">
            <mxGeometry relative="1" as="geometry">
              <mxPoint x="-1" as="offset" />
              <Array as="points" />
            </mxGeometry>
          </mxCell>
        </UserObject>
        <UserObject label="" tags="连接线" id="72">
          <mxCell style="vsdxID=27;edgeStyle=none;startArrow=none;endArrow=block;startSize=5;endSize=5;strokeColor=#000000;spacingTop=0;spacingBottom=0;spacingLeft=0;spacingRight=0;verticalAlign=middle;html=1;labelBackgroundColor=#ffffff;rounded=0;exitX=1;exitY=0.5;exitDx=0;exitDy=0;exitPerimeter=0;entryX=0;entryY=0.5;entryDx=0;entryDy=0;entryPerimeter=0;" parent="1" source="4" target="13" edge="1">
            <mxGeometry relative="1" as="geometry">
              <mxPoint as="offset" />
              <Array as="points" />
            </mxGeometry>
          </mxCell>
        </UserObject>
        <UserObject label="" tags="连接线" id="73">
          <mxCell style="vsdxID=23;edgeStyle=none;startArrow=none;endArrow=block;startSize=5;endSize=5;strokeColor=#000000;spacingTop=0;spacingBottom=0;spacingLeft=0;spacingRight=0;verticalAlign=middle;html=1;labelBackgroundColor=#ffffff;rounded=0;exitX=1;exitY=0.5;exitDx=0;exitDy=0;exitPerimeter=0;entryX=0;entryY=0.5;entryDx=0;entryDy=0;entryPerimeter=0;" parent="1" source="2" target="5" edge="1">
            <mxGeometry relative="1" as="geometry">
              <mxPoint as="offset" />
              <Array as="points" />
            </mxGeometry>
          </mxCell>
        </UserObject>
        <mxCell id="fi60-aAPyIgHAfr6_0F9-108" value="/4bit" style="edgeLabel;html=1;align=center;verticalAlign=middle;resizable=0;points=[];" parent="73" vertex="1" connectable="0">
          <mxGeometry x="-0.1535" relative="1" as="geometry">
            <mxPoint as="offset" />
          </mxGeometry>
        </mxCell>
        <mxCell id="74" parent="1" vertex="1">
          <mxGeometry x="635" y="772" as="geometry" />
        </mxCell>
        <UserObject label="" tags="连接线" id="75">
          <mxCell style="vsdxID=113;edgeStyle=none;startArrow=none;endArrow=block;startSize=5;endSize=5;strokeColor=#000000;spacingTop=0;spacingBottom=0;spacingLeft=0;spacingRight=0;verticalAlign=middle;html=1;labelBackgroundColor=#ffffff;rounded=0;entryX=0;entryY=0.5;entryDx=0;entryDy=0;entryPerimeter=0;" parent="1" source="74" target="58" edge="1">
            <mxGeometry relative="1" as="geometry">
              <mxPoint as="offset" />
              <Array as="points">
                <mxPoint x="635" y="890.11" />
              </Array>
            </mxGeometry>
          </mxCell>
        </UserObject>
        <UserObject label="" tags="连接线" id="76">
          <mxCell style="vsdxID=112;edgeStyle=none;startArrow=none;endArrow=block;startSize=5;endSize=5;strokeColor=#000000;spacingTop=0;spacingBottom=0;spacingLeft=0;spacingRight=0;verticalAlign=middle;html=1;labelBackgroundColor=#ffffff;rounded=0;exitX=0.5;exitY=0;exitDx=0;exitDy=0;exitPerimeter=0;entryX=0.5;entryY=1;entryDx=0;entryDy=0;entryPerimeter=0;" parent="1" source="58" target="23" edge="1">
            <mxGeometry relative="1" as="geometry">
              <mxPoint x="10" y="-1" as="offset" />
              <Array as="points" />
            </mxGeometry>
          </mxCell>
        </UserObject>
        <mxCell id="77" parent="1" vertex="1">
          <mxGeometry x="422" y="772" as="geometry" />
        </mxCell>
        <UserObject label="" tags="连接线" id="78">
          <mxCell style="vsdxID=108;edgeStyle=none;startArrow=none;endArrow=block;startSize=5;endSize=5;strokeColor=#000000;spacingTop=0;spacingBottom=0;spacingLeft=0;spacingRight=0;verticalAlign=middle;html=1;labelBackgroundColor=#ffffff;rounded=0;entryX=0;entryY=0.5;entryDx=0;entryDy=0;entryPerimeter=0;" parent="1" source="77" target="22" edge="1">
            <mxGeometry relative="1" as="geometry">
              <mxPoint as="offset" />
              <Array as="points" />
            </mxGeometry>
          </mxCell>
        </UserObject>
        <UserObject label="" tags="连接线" id="79">
          <mxCell style="vsdxID=64;edgeStyle=none;startArrow=none;endArrow=block;startSize=5;endSize=5;strokeColor=#000000;spacingTop=0;spacingBottom=0;spacingLeft=0;spacingRight=0;verticalAlign=middle;html=1;labelBackgroundColor=#ffffff;rounded=0;exitX=1;exitY=0.5;exitDx=0;exitDy=0;exitPerimeter=0;entryX=0;entryY=0.5;entryDx=0;entryDy=0;entryPerimeter=0;" parent="1" source="27" target="29" edge="1">
            <mxGeometry relative="1" as="geometry">
              <mxPoint x="-1" as="offset" />
              <Array as="points" />
            </mxGeometry>
          </mxCell>
        </UserObject>
        <mxCell id="80" parent="1" vertex="1">
          <mxGeometry x="1575" y="892" as="geometry" />
        </mxCell>
        <UserObject label="" tags="连接线" id="81">
          <mxCell style="vsdxID=61;edgeStyle=none;startArrow=none;endArrow=block;startSize=5;endSize=5;strokeColor=#000000;spacingTop=0;spacingBottom=0;spacingLeft=0;spacingRight=0;verticalAlign=middle;html=1;labelBackgroundColor=#ffffff;rounded=0;exitX=1;exitY=0.5;exitDx=0;exitDy=0;exitPerimeter=0;" parent="1" source="30" target="80" edge="1">
            <mxGeometry relative="1" as="geometry">
              <mxPoint as="offset" />
              <Array as="points" />
            </mxGeometry>
          </mxCell>
        </UserObject>
        <mxCell id="82" parent="1" vertex="1">
          <mxGeometry x="1575" y="772" as="geometry" />
        </mxCell>
        <UserObject label="" tags="连接线" id="83">
          <mxCell style="vsdxID=58;edgeStyle=none;startArrow=none;endArrow=block;startSize=5;endSize=5;strokeColor=#000000;spacingTop=0;spacingBottom=0;spacingLeft=0;spacingRight=0;verticalAlign=middle;html=1;labelBackgroundColor=#ffffff;rounded=0;exitX=1;exitY=0.5;exitDx=0;exitDy=0;exitPerimeter=0;" parent="1" source="26" target="82" edge="1">
            <mxGeometry relative="1" as="geometry">
              <mxPoint as="offset" />
              <Array as="points" />
            </mxGeometry>
          </mxCell>
        </UserObject>
        <UserObject label="" tags="连接线" id="84">
          <mxCell style="vsdxID=57;edgeStyle=none;startArrow=none;endArrow=block;startSize=5;endSize=5;strokeColor=#000000;spacingTop=0;spacingBottom=0;spacingLeft=0;spacingRight=0;verticalAlign=middle;html=1;labelBackgroundColor=#ffffff;rounded=0;exitX=1;exitY=0.5;exitDx=0;exitDy=0;exitPerimeter=0;entryX=0;entryY=0.5;entryDx=0;entryDy=0;entryPerimeter=0;" parent="1" source="25" target="26" edge="1">
            <mxGeometry relative="1" as="geometry">
              <mxPoint x="-1" as="offset" />
              <Array as="points" />
            </mxGeometry>
          </mxCell>
        </UserObject>
        <UserObject label="" tags="连接线" id="85">
          <mxCell style="vsdxID=53;edgeStyle=none;startArrow=none;endArrow=block;startSize=5;endSize=5;strokeColor=#000000;spacingTop=0;spacingBottom=0;spacingLeft=0;spacingRight=0;verticalAlign=middle;html=1;labelBackgroundColor=#ffffff;rounded=0;exitX=1;exitY=0.5;exitDx=0;exitDy=0;exitPerimeter=0;entryX=0;entryY=0.5;entryDx=0;entryDy=0;entryPerimeter=0;" parent="1" source="24" target="25" edge="1">
            <mxGeometry relative="1" as="geometry">
              <mxPoint as="offset" />
              <Array as="points" />
            </mxGeometry>
          </mxCell>
        </UserObject>
        <UserObject label="" tags="连接线" id="86">
          <mxCell style="vsdxID=52;edgeStyle=none;startArrow=none;endArrow=block;startSize=5;endSize=5;strokeColor=#000000;spacingTop=0;spacingBottom=0;spacingLeft=0;spacingRight=0;verticalAlign=middle;html=1;labelBackgroundColor=#ffffff;rounded=0;exitX=1;exitY=0.5;exitDx=0;exitDy=0;exitPerimeter=0;entryX=0;entryY=0.5;entryDx=0;entryDy=0;entryPerimeter=0;" parent="1" source="59" target="24" edge="1">
            <mxGeometry relative="1" as="geometry">
              <mxPoint as="offset" />
              <Array as="points" />
            </mxGeometry>
          </mxCell>
        </UserObject>
        <UserObject label="" tags="连接线" id="87">
          <mxCell style="vsdxID=46;edgeStyle=none;startArrow=none;endArrow=block;startSize=5;endSize=5;strokeColor=#000000;spacingTop=0;spacingBottom=0;spacingLeft=0;spacingRight=0;verticalAlign=middle;html=1;labelBackgroundColor=#ffffff;rounded=0;exitX=1;exitY=0.5;exitDx=0;exitDy=0;exitPerimeter=0;entryX=0;entryY=0.5;entryDx=0;entryDy=0;entryPerimeter=0;" parent="1" source="22" target="23" edge="1">
            <mxGeometry relative="1" as="geometry">
              <mxPoint x="-1" as="offset" />
              <Array as="points" />
            </mxGeometry>
          </mxCell>
        </UserObject>
        <UserObject label="" tags="连接线" id="88">
          <mxCell style="vsdxID=45;edgeStyle=none;startArrow=none;endArrow=block;startSize=5;endSize=5;strokeColor=#000000;spacingTop=0;spacingBottom=0;spacingLeft=0;spacingRight=0;verticalAlign=middle;html=1;labelBackgroundColor=#ffffff;rounded=0;exitX=1;exitY=0.5;exitDx=0;exitDy=0;exitPerimeter=0;entryX=0;entryY=0.5;entryDx=0;entryDy=0;entryPerimeter=0;" parent="1" source="21" target="56" edge="1">
            <mxGeometry relative="1" as="geometry">
              <mxPoint as="offset" />
              <Array as="points" />
            </mxGeometry>
          </mxCell>
        </UserObject>
        <UserObject label="" tags="连接线" id="89">
          <mxCell style="vsdxID=44;edgeStyle=none;startArrow=none;endArrow=block;startSize=5;endSize=5;strokeColor=#000000;spacingTop=0;spacingBottom=0;spacingLeft=0;spacingRight=0;verticalAlign=middle;html=1;labelBackgroundColor=#ffffff;rounded=0;exitX=0.5;exitY=1;exitDx=0;exitDy=0;exitPerimeter=0;entryX=0.5;entryY=0;entryDx=0;entryDy=0;entryPerimeter=0;" parent="1" source="20" target="21" edge="1">
            <mxGeometry relative="1" as="geometry">
              <mxPoint x="10" as="offset" />
              <Array as="points" />
            </mxGeometry>
          </mxCell>
        </UserObject>
        <UserObject label="" tags="连接线" id="90">
          <mxCell style="vsdxID=34;edgeStyle=none;startArrow=none;endArrow=block;startSize=5;endSize=5;strokeColor=#000000;spacingTop=0;spacingBottom=0;spacingLeft=0;spacingRight=0;verticalAlign=middle;html=1;labelBackgroundColor=#ffffff;rounded=0;exitX=1;exitY=0.5;exitDx=0;exitDy=0;exitPerimeter=0;entryX=0.5;entryY=0;entryDx=0;entryDy=0;entryPerimeter=0;" parent="1" source="16" target="18" edge="1">
            <mxGeometry relative="1" as="geometry">
              <mxPoint as="offset" />
              <Array as="points">
                <mxPoint x="1529.3" y="333" />
              </Array>
            </mxGeometry>
          </mxCell>
        </UserObject>
        <UserObject label="" tags="连接线" id="91">
          <mxCell style="vsdxID=32;edgeStyle=none;startArrow=none;endArrow=block;startSize=5;endSize=5;strokeColor=#000000;spacingTop=0;spacingBottom=0;spacingLeft=0;spacingRight=0;verticalAlign=middle;html=1;labelBackgroundColor=#ffffff;rounded=0;exitX=1;exitY=0.5;exitDx=0;exitDy=0;exitPerimeter=0;entryX=0;entryY=0.5;entryDx=0;entryDy=0;entryPerimeter=0;" parent="1" source="11" target="12" edge="1">
            <mxGeometry relative="1" as="geometry">
              <mxPoint as="offset" />
              <Array as="points" />
            </mxGeometry>
          </mxCell>
        </UserObject>
        <UserObject label="" tags="连接线" id="92">
          <mxCell style="vsdxID=31;edgeStyle=none;startArrow=none;endArrow=block;startSize=5;endSize=5;strokeColor=#000000;spacingTop=0;spacingBottom=0;spacingLeft=0;spacingRight=0;verticalAlign=middle;html=1;labelBackgroundColor=#ffffff;rounded=0;exitX=1;exitY=0.5;exitDx=0;exitDy=0;exitPerimeter=0;entryX=0;entryY=0.5;entryDx=0;entryDy=0;entryPerimeter=0;" parent="1" source="3" target="11" edge="1">
            <mxGeometry relative="1" as="geometry">
              <mxPoint as="offset" />
              <Array as="points" />
            </mxGeometry>
          </mxCell>
        </UserObject>
        <mxCell id="fi60-aAPyIgHAfr6_0F9-109" value="/4bit" style="edgeLabel;html=1;align=center;verticalAlign=middle;resizable=0;points=[];" parent="92" vertex="1" connectable="0">
          <mxGeometry x="0.1444" y="-1" relative="1" as="geometry">
            <mxPoint x="-8" as="offset" />
          </mxGeometry>
        </mxCell>
        <UserObject label="" tags="连接线" id="94">
          <mxCell style="vsdxID=26;edgeStyle=none;startArrow=none;endArrow=block;startSize=5;endSize=5;strokeColor=#000000;spacingTop=0;spacingBottom=0;spacingLeft=0;spacingRight=0;verticalAlign=middle;html=1;labelBackgroundColor=#ffffff;rounded=0;exitX=1;exitY=0.5;exitDx=0;exitDy=0;exitPerimeter=0;entryX=0;entryY=0.5;entryDx=0;entryDy=0;entryPerimeter=0;" parent="1" source="5" target="4" edge="1">
            <mxGeometry relative="1" as="geometry">
              <mxPoint as="offset" />
              <Array as="points" />
            </mxGeometry>
          </mxCell>
        </UserObject>
        <UserObject label="&lt;div style=&quot;font-size: 1px&quot;&gt;&lt;font style=&quot;font-size:11.29px;font-family:SimSun;color:#000000;direction:ltr;letter-spacing:0px;line-height:120%;opacity:1&quot;&gt;导频数据后四个符号&lt;br&gt;[PPMM]&lt;/font&gt;&lt;/div&gt;" tags="背景" id="C0beONncchjNHmN_W_cL-96">
          <mxCell style="verticalAlign=middle;align=center;overflow=width;vsdxID=109;fillColor=none;gradientColor=none;shape=stencil(nZBLDoAgDERP0z3SIyjew0SURgSD+Lu9kMZoXLhwN9O+tukAlrNpJg1SzDH4QW/URgNYgZTkjA4UkwJUgGXng+6DX1zLfmoymdXo17xh5zmRJ6Q42BWCfc2oJfdAr+Yv+AP9Cb7OJ3H/2JG1HNGz/84klThPVCc=);strokeColor=none;points=[];labelBackgroundColor=none;rounded=0;html=1;whiteSpace=wrap;" parent="1" vertex="1">
            <mxGeometry x="571.75" y="893" width="126.5" height="27" as="geometry" />
          </mxCell>
        </UserObject>
        <UserObject label="&lt;div style=&quot;&quot;&gt;&lt;font face=&quot;SimSun&quot;&gt;&lt;span style=&quot;font-size: 11.29px;&quot;&gt;载荷数据&lt;/span&gt;&lt;/font&gt;&lt;/div&gt;&lt;div style=&quot;&quot;&gt;&lt;font face=&quot;SimSun&quot;&gt;&lt;span style=&quot;font-size: 11.29px;&quot;&gt;R&lt;/span&gt;&lt;/font&gt;&lt;/div&gt;" tags="背景" id="C0beONncchjNHmN_W_cL-97">
          <mxCell style="verticalAlign=middle;align=center;overflow=width;vsdxID=109;fillColor=none;gradientColor=none;shape=stencil(nZBLDoAgDERP0z3SIyjew0SURgSD+Lu9kMZoXLhwN9O+tukAlrNpJg1SzDH4QW/URgNYgZTkjA4UkwJUgGXng+6DX1zLfmoymdXo17xh5zmRJ6Q42BWCfc2oJfdAr+Yv+AP9Cb7OJ3H/2JG1HNGz/84klThPVCc=);strokeColor=none;points=[];labelBackgroundColor=none;rounded=0;html=1;whiteSpace=wrap;" parent="1" vertex="1">
            <mxGeometry x="642" y="738" width="53" height="27" as="geometry" />
          </mxCell>
        </UserObject>
        <UserObject label="&lt;div style=&quot;&quot;&gt;&lt;font face=&quot;SimSun&quot;&gt;&lt;span style=&quot;font-size: 11.29px;&quot;&gt;信道频响估计值&lt;br&gt;H_est&lt;/span&gt;&lt;/font&gt;&lt;/div&gt;" tags="背景" id="C0beONncchjNHmN_W_cL-98">
          <mxCell style="verticalAlign=middle;align=center;overflow=width;vsdxID=109;fillColor=none;gradientColor=none;shape=stencil(nZBLDoAgDERP0z3SIyjew0SURgSD+Lu9kMZoXLhwN9O+tukAlrNpJg1SzDH4QW/URgNYgZTkjA4UkwJUgGXng+6DX1zLfmoymdXo17xh5zmRJ6Q42BWCfc2oJfdAr+Yv+AP9Cb7OJ3H/2JG1HNGz/84klThPVCc=);strokeColor=none;points=[];labelBackgroundColor=none;rounded=0;html=1;whiteSpace=wrap;" parent="1" vertex="1">
            <mxGeometry x="642" y="828" width="84" height="27" as="geometry" />
          </mxCell>
        </UserObject>
        <UserObject label="&lt;div style=&quot;&quot;&gt;&lt;br&gt;&lt;/div&gt;" tags="背景" id="C0beONncchjNHmN_W_cL-99">
          <mxCell style="verticalAlign=middle;align=center;overflow=width;vsdxID=109;fillColor=none;gradientColor=none;shape=stencil(nZBLDoAgDERP0z3SIyjew0SURgSD+Lu9kMZoXLhwN9O+tukAlrNpJg1SzDH4QW/URgNYgZTkjA4UkwJUgGXng+6DX1zLfmoymdXo17xh5zmRJ6Q42BWCfc2oJfdAr+Yv+AP9Cb7OJ3H/2JG1HNGz/84klThPVCc=);strokeColor=none;points=[];labelBackgroundColor=none;rounded=0;html=1;whiteSpace=wrap;" parent="1" vertex="1">
            <mxGeometry x="780" y="740" width="53" height="27" as="geometry" />
          </mxCell>
        </UserObject>
        <UserObject label="&lt;div style=&quot;&quot;&gt;&lt;font face=&quot;SimSun&quot;&gt;&lt;span style=&quot;font-size: 11.29px;&quot;&gt;估计数据&lt;/span&gt;&lt;/font&gt;&lt;/div&gt;&lt;div style=&quot;&quot;&gt;&lt;font face=&quot;SimSun&quot;&gt;&lt;span style=&quot;font-size: 11.29px;&quot;&gt;R_est&lt;/span&gt;&lt;/font&gt;&lt;/div&gt;&lt;div style=&quot;&quot;&gt;&lt;font face=&quot;SimSun&quot;&gt;&lt;span style=&quot;font-size: 11.29px;&quot;&gt;1024点复数&lt;/span&gt;&lt;/font&gt;&lt;/div&gt;" tags="背景" id="C0beONncchjNHmN_W_cL-100">
          <mxCell style="verticalAlign=middle;align=center;overflow=width;vsdxID=109;fillColor=none;gradientColor=none;shape=stencil(nZBLDoAgDERP0z3SIyjew0SURgSD+Lu9kMZoXLhwN9O+tukAlrNpJg1SzDH4QW/URgNYgZTkjA4UkwJUgGXng+6DX1zLfmoymdXo17xh5zmRJ6Q42BWCfc2oJfdAr+Yv+AP9Cb7OJ3H/2JG1HNGz/84klThPVCc=);strokeColor=none;points=[];labelBackgroundColor=none;rounded=0;html=1;whiteSpace=wrap;" parent="1" vertex="1">
            <mxGeometry x="767" y="717" width="93" height="46" as="geometry" />
          </mxCell>
        </UserObject>
        <UserObject label="" tags="连接线" id="fi60-aAPyIgHAfr6_0F9-99">
          <mxCell style="vsdxID=23;edgeStyle=none;startArrow=none;endArrow=block;startSize=5;endSize=5;strokeColor=#000000;spacingTop=0;spacingBottom=0;spacingLeft=0;spacingRight=0;verticalAlign=middle;html=1;labelBackgroundColor=#ffffff;rounded=0;exitX=1;exitY=0.5;exitDx=0;exitDy=0;exitPerimeter=0;entryX=0;entryY=0.5;entryDx=0;entryDy=0;entryPerimeter=0;" parent="1" edge="1">
            <mxGeometry relative="1" as="geometry">
              <mxPoint as="offset" />
              <Array as="points" />
              <mxPoint x="110" y="334" as="sourcePoint" />
              <mxPoint x="204" y="334" as="targetPoint" />
            </mxGeometry>
          </mxCell>
        </UserObject>
        <mxCell id="fi60-aAPyIgHAfr6_0F9-100" value="/2bit" style="edgeLabel;html=1;align=center;verticalAlign=middle;resizable=0;points=[];" parent="fi60-aAPyIgHAfr6_0F9-99" vertex="1" connectable="0">
          <mxGeometry x="0.0581" y="1" relative="1" as="geometry">
            <mxPoint as="offset" />
          </mxGeometry>
        </mxCell>
        <UserObject label="" tags="连接线" id="fi60-aAPyIgHAfr6_0F9-101">
          <mxCell style="vsdxID=23;edgeStyle=none;startArrow=none;endArrow=block;startSize=5;endSize=5;strokeColor=#000000;spacingTop=0;spacingBottom=0;spacingLeft=0;spacingRight=0;verticalAlign=middle;html=1;labelBackgroundColor=#ffffff;rounded=0;exitX=1;exitY=0.5;exitDx=0;exitDy=0;exitPerimeter=0;entryX=0;entryY=0.5;entryDx=0;entryDy=0;entryPerimeter=0;" parent="1" edge="1">
            <mxGeometry relative="1" as="geometry">
              <mxPoint as="offset" />
              <Array as="points" />
              <mxPoint x="276" y="436" as="sourcePoint" />
              <mxPoint x="370" y="436" as="targetPoint" />
            </mxGeometry>
          </mxCell>
        </UserObject>
        <mxCell id="fi60-aAPyIgHAfr6_0F9-102" value="/2bit" style="edgeLabel;html=1;align=center;verticalAlign=middle;resizable=0;points=[];" parent="fi60-aAPyIgHAfr6_0F9-101" vertex="1" connectable="0">
          <mxGeometry x="0.0581" y="1" relative="1" as="geometry">
            <mxPoint as="offset" />
          </mxGeometry>
        </mxCell>
        <UserObject label="" tags="连接线" id="fi60-aAPyIgHAfr6_0F9-103">
          <mxCell style="vsdxID=23;edgeStyle=none;startArrow=none;endArrow=block;startSize=5;endSize=5;strokeColor=#000000;spacingTop=0;spacingBottom=0;spacingLeft=0;spacingRight=0;verticalAlign=middle;html=1;labelBackgroundColor=#ffffff;rounded=0;exitX=1;exitY=0.5;exitDx=0;exitDy=0;exitPerimeter=0;entryX=0;entryY=0.5;entryDx=0;entryDy=0;entryPerimeter=0;" parent="1" edge="1">
            <mxGeometry relative="1" as="geometry">
              <mxPoint as="offset" />
              <Array as="points" />
              <mxPoint x="110" y="434.71" as="sourcePoint" />
              <mxPoint x="204" y="434.71" as="targetPoint" />
            </mxGeometry>
          </mxCell>
        </UserObject>
        <UserObject label="&lt;div style=&quot;font-size: 1px&quot;&gt;&lt;font style=&quot;font-size:11.29px;font-family:SimSun;color:#000000;direction:ltr;letter-spacing:0px;line-height:120%;opacity:1&quot;&gt;72/136/264/520字节&lt;br&gt;&lt;/font&gt;&lt;/div&gt;" tags="背景" id="fi60-aAPyIgHAfr6_0F9-107">
          <mxCell style="verticalAlign=middle;align=center;overflow=width;vsdxID=68;fillColor=none;gradientColor=none;shape=stencil(nZBLDoAgDERP0z3SIyjew0SURgSD+Lu9kMZoXLhwN9O+tukAlrNpJg1SzDH4QW/URgNYgZTkjA4UkwJUgGXng+6DX1zLfmoymdXo17xh5zmRJ6Q42BWCfc2oJfdAr+Yv+AP9Cb7OJ3H/2JG1HNGz/84klThPVCc=);strokeColor=none;points=[];labelBackgroundColor=none;rounded=0;html=1;whiteSpace=wrap;" parent="1" vertex="1">
            <mxGeometry x="96" y="435.5" width="100" height="33" as="geometry" />
          </mxCell>
        </UserObject>
        <UserObject label="&lt;div style=&quot;font-size: 1px&quot;&gt;&lt;font style=&quot;font-size:11.29px;font-family:SimSun;color:#000000;direction:ltr;letter-spacing:0px;line-height:120%;opacity:1&quot;&gt;72/136/264/520字节&lt;br&gt;&lt;/font&gt;&lt;/div&gt;" tags="背景" id="fi60-aAPyIgHAfr6_0F9-111">
          <mxCell style="verticalAlign=middle;align=center;overflow=width;vsdxID=68;fillColor=none;gradientColor=none;shape=stencil(nZBLDoAgDERP0z3SIyjew0SURgSD+Lu9kMZoXLhwN9O+tukAlrNpJg1SzDH4QW/URgNYgZTkjA4UkwJUgGXng+6DX1zLfmoymdXo17xh5zmRJ6Q42BWCfc2oJfdAr+Yv+AP9Cb7OJ3H/2JG1HNGz/84klThPVCc=);strokeColor=none;points=[];labelBackgroundColor=none;rounded=0;html=1;whiteSpace=wrap;" parent="1" vertex="1">
            <mxGeometry x="275" y="439" width="100" height="33" as="geometry" />
          </mxCell>
        </UserObject>
        <UserObject label="&lt;div style=&quot;font-size: 1px&quot;&gt;&lt;font style=&quot;font-size:11.29px;font-family:SimSun;color:#000000;direction:ltr;letter-spacing:0px;line-height:120%;opacity:1&quot;&gt;2×(72/136/&lt;/font&gt;&lt;/div&gt;&lt;div style=&quot;font-size: 1px&quot;&gt;&lt;font style=&quot;font-size:11.29px;font-family:SimSun;color:#000000;direction:ltr;letter-spacing:0px;line-height:120%;opacity:1&quot;&gt;264/520)字节&lt;br&gt;&lt;/font&gt;&lt;/div&gt;" tags="背景" id="fi60-aAPyIgHAfr6_0F9-113">
          <mxCell style="verticalAlign=middle;align=center;overflow=width;vsdxID=68;fillColor=none;gradientColor=none;shape=stencil(nZBLDoAgDERP0z3SIyjew0SURgSD+Lu9kMZoXLhwN9O+tukAlrNpJg1SzDH4QW/URgNYgZTkjA4UkwJUgGXng+6DX1zLfmoymdXo17xh5zmRJ6Q42BWCfc2oJfdAr+Yv+AP9Cb7OJ3H/2JG1HNGz/84klThPVCc=);strokeColor=none;points=[];labelBackgroundColor=none;rounded=0;html=1;whiteSpace=wrap;" parent="1" vertex="1">
            <mxGeometry x="453" y="440" width="81" height="32" as="geometry" />
          </mxCell>
        </UserObject>
        <mxCell id="fi60-aAPyIgHAfr6_0F9-116" value="I + Q&#xa;查(2×FC符号个数×可用子载波数)次映射表,&#xa;(2×FC符号个数×可用子载波数)次相位表,&#xa;(FC符号个数×可用子载波数)次乘法&#xa;FPGA(100M):0.66us" style="text;align=center;verticalAlign=middle;resizable=1;points=[];autosize=1;strokeColor=none;fillColor=none;movable=1;rotatable=1;deletable=1;editable=1;locked=0;connectable=1;fontSize=8;" parent="1" vertex="1">
          <mxGeometry x="726" y="231.5" width="145" height="90" as="geometry" />
        </mxCell>
        <mxCell id="fi60-aAPyIgHAfr6_0F9-118" value="&lt;pre style=&quot;&quot;&gt;&lt;font face=&quot;Helvetica&quot; style=&quot;font-size: 11px;&quot;&gt;FPGA(100M):86.96us&lt;/font&gt;&lt;/pre&gt;" style="text;html=1;align=center;verticalAlign=middle;resizable=0;points=[];autosize=1;strokeColor=none;fillColor=none;fontSize=12;" parent="1" vertex="1">
          <mxGeometry x="915" y="251.5" width="140" height="50" as="geometry" />
        </mxCell>
        <mxCell id="fi60-aAPyIgHAfr6_0F9-119" value="并转串" style="text;html=1;align=center;verticalAlign=middle;resizable=0;points=[];autosize=1;strokeColor=none;fillColor=none;" parent="1" vertex="1">
          <mxGeometry x="1270" y="308" width="60" height="30" as="geometry" />
        </mxCell>
        <mxCell id="fi60-aAPyIgHAfr6_0F9-120" value="前导：&lt;br&gt;1024*13点读写" style="text;html=1;align=center;verticalAlign=middle;resizable=0;points=[];autosize=1;strokeColor=none;fillColor=none;" parent="1" vertex="1">
          <mxGeometry x="1313" y="356" width="100" height="40" as="geometry" />
        </mxCell>
        <UserObject label="&lt;div style=&quot;font-size: 1px&quot;&gt;&lt;font style=&quot;font-size:11.29px;font-family:SimSun;color:#000000;direction:ltr;letter-spacing:0px;line-height:120%;opacity:1&quot;&gt;2×(72/136/&lt;/font&gt;&lt;/div&gt;&lt;div style=&quot;font-size: 1px&quot;&gt;&lt;font style=&quot;font-size:11.29px;font-family:SimSun;color:#000000;direction:ltr;letter-spacing:0px;line-height:120%;opacity:1&quot;&gt;264/520)字节&lt;br&gt;&lt;/font&gt;&lt;/div&gt;" tags="背景" id="fi60-aAPyIgHAfr6_0F9-121">
          <mxCell style="verticalAlign=middle;align=center;overflow=width;vsdxID=68;fillColor=none;gradientColor=none;shape=stencil(nZBLDoAgDERP0z3SIyjew0SURgSD+Lu9kMZoXLhwN9O+tukAlrNpJg1SzDH4QW/URgNYgZTkjA4UkwJUgGXng+6DX1zLfmoymdXo17xh5zmRJ6Q42BWCfc2oJfdAr+Yv+AP9Cb7OJ3H/2JG1HNGz/84klThPVCc=);strokeColor=none;points=[];labelBackgroundColor=none;rounded=0;html=1;whiteSpace=wrap;" parent="1" vertex="1">
            <mxGeometry x="615" y="440" width="81" height="32" as="geometry" />
          </mxCell>
        </UserObject>
        <UserObject label="&lt;div style=&quot;font-size: 1px&quot;&gt;&lt;font style=&quot;font-size:11.29px;font-family:SimSun;color:#000000;direction:ltr;letter-spacing:0px;line-height:120%;opacity:1&quot;&gt;OFDM符号&lt;br&gt;&lt;/font&gt;&lt;/div&gt;&lt;div style=&quot;font-size: 1px&quot;&gt;&lt;font style=&quot;font-size:11.29px;font-family:SimSun;color:#000000;direction:ltr;letter-spacing:0px;line-height:120%;opacity:1&quot;&gt;1024+458点&lt;/font&gt;&lt;/div&gt;" tags="背景" id="fi60-aAPyIgHAfr6_0F9-122">
          <mxCell style="verticalAlign=middle;align=center;overflow=width;vsdxID=83;fillColor=none;gradientColor=none;shape=stencil(nZBLDoAgDERP0z3SIyjew0SURgSD+Lu9kMZoXLhwN9O+tukAlrNpJg1SzDH4QW/URgNYgZTkjA4UkwJUgGXng+6DX1zLfmoymdXo17xh5zmRJ6Q42BWCfc2oJfdAr+Yv+AP9Cb7OJ3H/2JG1HNGz/84klThPVCc=);strokeColor=none;points=[];labelBackgroundColor=none;rounded=0;html=1;whiteSpace=wrap;" parent="1" vertex="1">
            <mxGeometry x="280" y="779" width="70" height="41" as="geometry" />
          </mxCell>
        </UserObject>
        <UserObject label="&lt;div style=&quot;font-size: 1px&quot;&gt;&lt;font style=&quot;font-size:11.29px;font-family:SimSun;color:#000000;direction:ltr;letter-spacing:0px;line-height:120%;opacity:1&quot;&gt;72/136/264/520字节&lt;br&gt;&lt;/font&gt;&lt;/div&gt;" tags="背景" id="fi60-aAPyIgHAfr6_0F9-123">
          <mxCell style="verticalAlign=middle;align=center;overflow=width;vsdxID=68;fillColor=none;gradientColor=none;shape=stencil(nZBLDoAgDERP0z3SIyjew0SURgSD+Lu9kMZoXLhwN9O+tukAlrNpJg1SzDH4QW/URgNYgZTkjA4UkwJUgGXng+6DX1zLfmoymdXo17xh5zmRJ6Q42BWCfc2oJfdAr+Yv+AP9Cb7OJ3H/2JG1HNGz/84klThPVCc=);strokeColor=none;points=[];labelBackgroundColor=none;rounded=0;html=1;whiteSpace=wrap;" parent="1" vertex="1">
            <mxGeometry x="1475" y="900" width="100" height="30" as="geometry" />
          </mxCell>
        </UserObject>
        <UserObject label="&lt;div style=&quot;font-size: 1px&quot;&gt;&lt;font style=&quot;font-size:11.29px;font-family:SimSun;color:#000000;direction:ltr;letter-spacing:0px;line-height:120%;opacity:1&quot;&gt;16字节&lt;br&gt;&lt;/font&gt;&lt;/div&gt;" tags="背景" id="fi60-aAPyIgHAfr6_0F9-124">
          <mxCell style="verticalAlign=middle;align=center;overflow=width;vsdxID=68;fillColor=none;gradientColor=none;shape=stencil(nZBLDoAgDERP0z3SIyjew0SURgSD+Lu9kMZoXLhwN9O+tukAlrNpJg1SzDH4QW/URgNYgZTkjA4UkwJUgGXng+6DX1zLfmoymdXo17xh5zmRJ6Q42BWCfc2oJfdAr+Yv+AP9Cb7OJ3H/2JG1HNGz/84klThPVCc=);strokeColor=none;points=[];labelBackgroundColor=none;rounded=0;html=1;whiteSpace=wrap;" parent="1" vertex="1">
            <mxGeometry x="1498.5" y="777" width="53" height="22" as="geometry" />
          </mxCell>
        </UserObject>
        <UserObject label="&lt;div style=&quot;font-size: 1px&quot;&gt;&lt;font style=&quot;font-size:11.29px;font-family:SimSun;color:#000000;direction:ltr;letter-spacing:0px;line-height:120%;opacity:1&quot;&gt;72/136/264/520字节&lt;br&gt;&lt;/font&gt;&lt;/div&gt;" tags="背景" id="fi60-aAPyIgHAfr6_0F9-125">
          <mxCell style="verticalAlign=middle;align=center;overflow=width;vsdxID=68;fillColor=none;gradientColor=none;shape=stencil(nZBLDoAgDERP0z3SIyjew0SURgSD+Lu9kMZoXLhwN9O+tukAlrNpJg1SzDH4QW/URgNYgZTkjA4UkwJUgGXng+6DX1zLfmoymdXo17xh5zmRJ6Q42BWCfc2oJfdAr+Yv+AP9Cb7OJ3H/2JG1HNGz/84klThPVCc=);strokeColor=none;points=[];labelBackgroundColor=none;rounded=0;html=1;whiteSpace=wrap;" parent="1" vertex="1">
            <mxGeometry x="1296" y="895" width="100" height="33" as="geometry" />
          </mxCell>
        </UserObject>
        <UserObject label="&lt;div style=&quot;font-size: 1px&quot;&gt;&lt;font style=&quot;font-size:11.29px;font-family:SimSun;color:#000000;direction:ltr;letter-spacing:0px;line-height:120%;opacity:1&quot;&gt;2×(72/136/&lt;/font&gt;&lt;/div&gt;&lt;div style=&quot;font-size: 1px&quot;&gt;&lt;font style=&quot;font-size:11.29px;font-family:SimSun;color:#000000;direction:ltr;letter-spacing:0px;line-height:120%;opacity:1&quot;&gt;264/520)字节&lt;br&gt;&lt;/font&gt;&lt;/div&gt;" tags="背景" id="fi60-aAPyIgHAfr6_0F9-127">
          <mxCell style="verticalAlign=middle;align=center;overflow=width;vsdxID=68;fillColor=none;gradientColor=none;shape=stencil(nZBLDoAgDERP0z3SIyjew0SURgSD+Lu9kMZoXLhwN9O+tukAlrNpJg1SzDH4QW/URgNYgZTkjA4UkwJUgGXng+6DX1zLfmoymdXo17xh5zmRJ6Q42BWCfc2oJfdAr+Yv+AP9Cb7OJ3H/2JG1HNGz/84klThPVCc=);strokeColor=none;points=[];labelBackgroundColor=none;rounded=0;html=1;whiteSpace=wrap;" parent="1" vertex="1">
            <mxGeometry x="1139" y="896" width="81" height="32" as="geometry" />
          </mxCell>
        </UserObject>
        <UserObject label="&lt;div style=&quot;font-size: 1px&quot;&gt;&lt;font style=&quot;font-size:11.29px;font-family:SimSun;color:#000000;direction:ltr;letter-spacing:0px;line-height:120%;opacity:1&quot;&gt;2×(72/136/&lt;/font&gt;&lt;/div&gt;&lt;div style=&quot;font-size: 1px&quot;&gt;&lt;font style=&quot;font-size:11.29px;font-family:SimSun;color:#000000;direction:ltr;letter-spacing:0px;line-height:120%;opacity:1&quot;&gt;264/520)字节&lt;br&gt;&lt;/font&gt;&lt;/div&gt;" tags="背景" id="fi60-aAPyIgHAfr6_0F9-128">
          <mxCell style="verticalAlign=middle;align=center;overflow=width;vsdxID=68;fillColor=none;gradientColor=none;shape=stencil(nZBLDoAgDERP0z3SIyjew0SURgSD+Lu9kMZoXLhwN9O+tukAlrNpJg1SzDH4QW/URgNYgZTkjA4UkwJUgGXng+6DX1zLfmoymdXo17xh5zmRJ6Q42BWCfc2oJfdAr+Yv+AP9Cb7OJ3H/2JG1HNGz/84klThPVCc=);strokeColor=none;points=[];labelBackgroundColor=none;rounded=0;html=1;whiteSpace=wrap;" parent="1" vertex="1">
            <mxGeometry x="977" y="895.5" width="81" height="32" as="geometry" />
          </mxCell>
        </UserObject>
        <UserObject label="&lt;div style=&quot;&quot;&gt;&lt;p style=&quot;text-align: center; margin: 0px; text-indent: 0px; vertical-align: middle; direction: ltr;&quot;&gt;&lt;font style=&quot;direction: ltr; line-height: 120%; opacity: 1;&quot;&gt;&lt;font face=&quot;SimSun&quot;&gt;32字节(前16字节信息码，后16字节校验码)&lt;/font&gt;&lt;br&gt;&lt;/font&gt;&lt;/p&gt;&lt;/div&gt;" tags="背景" id="SJYQjBnvBxylJUNYnNMF-96">
          <mxCell style="verticalAlign=middle;align=center;overflow=width;vsdxID=70;fillColor=none;gradientColor=none;shape=stencil(nZBLDoAgDERP0z3SIyjew0SURgSD+Lu9kMZoXLhwN9O+tukAlrNpJg1SzDH4QW/URgNYgZTkjA4UkwJUgGXng+6DX1zLfmoymdXo17xh5zmRJ6Q42BWCfc2oJfdAr+Yv+AP9Cb7OJ3H/2JG1HNGz/84klThPVCc=);strokeColor=none;points=[];labelBackgroundColor=none;rounded=0;html=1;whiteSpace=wrap;" parent="1" vertex="1">
            <mxGeometry x="1299" y="779" width="90" height="51" as="geometry" />
          </mxCell>
        </UserObject>
        <UserObject label="&lt;div style=&quot;font-size: 1px&quot;&gt;&lt;font style=&quot;font-size:11.29px;font-family:SimSun;color:#000000;direction:ltr;letter-spacing:0px;line-height:120%;opacity:1&quot;&gt;32字节&lt;br&gt;&lt;/font&gt;&lt;/div&gt;" tags="背景" id="SJYQjBnvBxylJUNYnNMF-97">
          <mxCell style="verticalAlign=middle;align=center;overflow=width;vsdxID=71;fillColor=none;gradientColor=none;shape=stencil(nZBLDoAgDERP0z3SIyjew0SURgSD+Lu9kMZoXLhwN9O+tukAlrNpJg1SzDH4QW/URgNYgZTkjA4UkwJUgGXng+6DX1zLfmoymdXo17xh5zmRJ6Q42BWCfc2oJfdAr+Yv+AP9Cb7OJ3H/2JG1HNGz/84klThPVCc=);strokeColor=none;points=[];labelBackgroundColor=none;rounded=0;html=1;whiteSpace=wrap;" parent="1" vertex="1">
            <mxGeometry x="1145" y="772" width="53" height="22" as="geometry" />
          </mxCell>
        </UserObject>
        <mxCell id="KTb-2xRVzmfc29rBeJ8N-97" value="复杂度分析：&#xa;256次写入交织后的Turbo码&#xa;2*NumCarrier次读取编码&#xa;（使用频段0为822）&#xa;资源分析（华为）：&#xa;LUT:90&#xa;FF:75&#xa;BRAM:5&#xa;DSP:9&#xa;FPGA(100M):10.48us" style="text;align=center;verticalAlign=middle;resizable=1;points=[];autosize=1;strokeColor=none;fillColor=none;movable=1;rotatable=1;deletable=1;editable=1;locked=0;connectable=1;fontSize=8;" parent="1" vertex="1">
          <mxGeometry x="485" y="149" width="170" height="160" as="geometry" />
        </mxCell>
        <mxCell id="KTb-2xRVzmfc29rBeJ8N-98" value="复杂度分析：&#xa;CopyNum*2176次写入交织后的Turbo码&#xa;CopyNum*(2176+PadBitsNum)次读取编码&#xa;GroupShiftNum[i]*BitsPerGroup次移位&#xa;资源分析（华为）：&#xa;LUT:3939&#xa;FF:4279&#xa;BRAM:12.5&#xa;DSP:1&#xa;FPGA(100M):248.44us" style="text;align=center;verticalAlign=middle;resizable=1;points=[];autosize=1;strokeColor=none;fillColor=none;movable=1;rotatable=1;deletable=1;editable=1;locked=0;connectable=1;fontSize=8;" parent="1" vertex="1">
          <mxGeometry x="800" y="372" width="250" height="160" as="geometry" />
        </mxCell>
        <mxCell id="KTb-2xRVzmfc29rBeJ8N-99" value="复杂度分析：&#xa;2176次写入交织前的Turbo码&#xa;2176次读取交织前的Turbo码&#xa;816次移位&#xa;资源分析（华为）：&#xa;LUT:755&#xa;FF:207&#xa;BRAM:1&#xa;FPGA(100M):87.2us" style="text;align=center;verticalAlign=middle;resizable=1;points=[];autosize=1;strokeColor=none;fillColor=none;movable=1;rotatable=1;deletable=1;editable=1;locked=0;connectable=1;fontSize=8;" parent="1" vertex="1">
          <mxGeometry x="482" y="445" width="180" height="140" as="geometry" />
        </mxCell>
        <mxCell id="KTb-2xRVzmfc29rBeJ8N-100" value="复杂度分析：&#xa;256次写入交织前的Turbo码&#xa;256次读取交织前的Turbo码&#xa;96次移位&#xa;资源分析（华为）：&#xa;LUT:57&#xa;FF:81&#xa;BRAM:1&#xa;FPGA(100M):10.52us" style="text;align=center;verticalAlign=middle;resizable=1;points=[];autosize=1;strokeColor=none;fillColor=none;movable=1;rotatable=1;deletable=1;editable=1;locked=0;connectable=1;fontSize=8;" parent="1" vertex="1">
          <mxGeometry x="321" y="166" width="170" height="140" as="geometry" />
        </mxCell>
        <mxCell id="vVA22S3UWNyl42mja5Np-96" value="&lt;font style=&quot;font-size: 9px;&quot;&gt;LUT:336&lt;br style=&quot;&quot;&gt;FF:166&lt;br style=&quot;&quot;&gt;BRAM:3&lt;br style=&quot;&quot;&gt;FPGA(100M):32.24us&lt;/font&gt;" style="text;html=1;align=center;verticalAlign=middle;resizable=0;points=[];autosize=1;strokeColor=none;fillColor=none;" parent="1" vertex="1">
          <mxGeometry x="1092" y="236" width="140" height="70" as="geometry" />
        </mxCell>
        <mxCell id="vVA22S3UWNyl42mja5Np-98" value="读写，每个符&lt;br&gt;号删去458点" style="text;html=1;align=center;verticalAlign=middle;resizable=0;points=[];autosize=1;strokeColor=none;fillColor=none;" parent="1" vertex="1">
          <mxGeometry x="329" y="705" width="100" height="40" as="geometry" />
        </mxCell>
        <mxCell id="vVA22S3UWNyl42mja5Np-99" value="LUT:1914&lt;br&gt;FF:3014&lt;br&gt;BRAM:2.5&lt;br&gt;DSP:12&lt;br&gt;FPGA(100M):31us" style="text;whiteSpace=wrap;html=1;align=center;" parent="1" vertex="1">
          <mxGeometry x="463" y="662" width="150" height="80" as="geometry" />
        </mxCell>
        <mxCell id="a8oxpkzo-WtemiT5pWhY-96" value="$$\sum_{i=1}^{CopyNum} $$" style="text;strokeColor=none;align=center;fillColor=none;html=1;verticalAlign=middle;whiteSpace=wrap;rounded=0;" parent="1" vertex="1">
          <mxGeometry x="812" y="426" width="30" height="20" as="geometry" />
        </mxCell>
        <mxCell id="PKwFbaPy-BNmkQgTnEo8-96" value="128次乘法，&#xa;640次加减法，&#xa;128次整除，&#xa;256次模，&#xa;128次查找，&#xa;128次移位&#xa;LUT:312&#xa;FF:225&#xa;BRAM:1.5&#xa;FPGA(100M):11.24us" style="text;align=center;verticalAlign=middle;resizable=1;points=[];autosize=1;strokeColor=none;fillColor=none;movable=1;rotatable=1;deletable=1;editable=1;locked=0;connectable=1;fontSize=8;" parent="1" vertex="1">
          <mxGeometry x="170" y="140" width="140" height="150" as="geometry" />
        </mxCell>
        <UserObject label="" tags="连接线" id="PKwFbaPy-BNmkQgTnEo8-97">
          <mxCell style="vsdxID=41;edgeStyle=none;startArrow=none;endArrow=block;startSize=5;endSize=5;strokeColor=#000000;spacingTop=0;spacingBottom=0;spacingLeft=0;spacingRight=0;verticalAlign=middle;html=1;labelBackgroundColor=#ffffff;rounded=0;exitX=0.5;exitY=0;exitDx=0;exitDy=0;exitPerimeter=0;" parent="1" source="2" target="PKwFbaPy-BNmkQgTnEo8-96" edge="1">
            <mxGeometry relative="1" as="geometry">
              <mxPoint x="10" as="offset" />
              <Array as="points" />
              <mxPoint x="245" y="310" as="sourcePoint" />
              <mxPoint x="245" y="673" as="targetPoint" />
            </mxGeometry>
          </mxCell>
        </UserObject>
        <mxCell id="PKwFbaPy-BNmkQgTnEo8-99" value="&#xa;LUT:312&#xa;FF:225&#xa;BRAM:1.5&#xa;FPGA(100M):88.16us" style="text;align=center;verticalAlign=middle;resizable=1;points=[];autosize=1;strokeColor=none;fillColor=none;movable=1;rotatable=1;deletable=1;editable=1;locked=0;connectable=1;fontSize=8;" parent="1" vertex="1">
          <mxGeometry x="336" y="530" width="140" height="84" as="geometry" />
        </mxCell>
        <mxCell id="PKwFbaPy-BNmkQgTnEo8-100" value="LUT:11877&#xa;FF:8899&#xa;BRAM:107.5&#xa;FPGA(100M):305us" style="text;align=center;verticalAlign=middle;resizable=1;points=[];autosize=1;strokeColor=none;fillColor=none;movable=1;rotatable=1;deletable=1;editable=1;locked=0;connectable=1;fontSize=8;" parent="1" vertex="1">
          <mxGeometry x="1195" y="927.5" width="130" height="70" as="geometry" />
        </mxCell>
        <mxCell id="PKwFbaPy-BNmkQgTnEo8-101" value="LUT:11877&#xa;FF:8899&#xa;BRAM:107.5&#xa;FPGA(100M):36us" style="text;align=center;verticalAlign=middle;resizable=1;points=[];autosize=1;strokeColor=none;fillColor=none;movable=1;rotatable=1;deletable=1;editable=1;locked=0;connectable=1;fontSize=8;" parent="1" vertex="1">
          <mxGeometry x="1368" y="675" width="120" height="70" as="geometry" />
        </mxCell>
        <mxCell id="MXkBJBMoVQ0zneRyonkn-96" value="每2bit一次移&#xa;位两次异或" style="text;align=center;verticalAlign=middle;resizable=1;points=[];autosize=1;strokeColor=none;fillColor=none;movable=1;rotatable=1;deletable=1;editable=1;locked=0;connectable=1;fontSize=8;" parent="1" vertex="1">
          <mxGeometry x="198" y="459" width="90" height="40" as="geometry" />
        </mxCell>
        <mxCell id="Gfq3Y8K2kFP6dDdqrRhs-96" value="&lt;font style=&quot;font-size: 8px;&quot;&gt;&lt;i&gt;前导: 10.5个SYNCP&lt;br&gt;&amp;nbsp;与 2.5个SYNCM&lt;/i&gt;&lt;/font&gt;" style="text;html=1;strokeColor=none;fillColor=none;align=center;verticalAlign=middle;whiteSpace=wrap;rounded=0;" parent="1" vertex="1">
          <mxGeometry x="100" y="745" width="120" height="30" as="geometry" />
        </mxCell>
        <UserObject label="&lt;div style=&quot;font-size: 11px;&quot;&gt;&lt;font style=&quot;font-family: SimSun; color: rgb(0, 0, 0); direction: ltr; letter-spacing: 0px; line-height: 120%; opacity: 1; font-size: 11px;&quot;&gt;OFDM符号&lt;br&gt;&lt;/font&gt;&lt;/div&gt;&lt;font style=&quot;font-size: 10px;&quot;&gt;1024*13点前导+&lt;/font&gt;&lt;div style=&quot;font-size: 11px;&quot;&gt;&lt;font style=&quot;font-family: SimSun; color: rgb(0, 0, 0); direction: ltr; letter-spacing: 0px; line-height: 120%; opacity: 1; font-size: 11px;&quot;&gt;1024+458点&lt;/font&gt;&lt;/div&gt;" tags="背景" id="Gfq3Y8K2kFP6dDdqrRhs-98">
          <mxCell style="verticalAlign=middle;align=center;overflow=width;vsdxID=83;fillColor=none;gradientColor=none;shape=stencil(nZBLDoAgDERP0z3SIyjew0SURgSD+Lu9kMZoXLhwN9O+tukAlrNpJg1SzDH4QW/URgNYgZTkjA4UkwJUgGXng+6DX1zLfmoymdXo17xh5zmRJ6Q42BWCfc2oJfdAr+Yv+AP9Cb7OJ3H/2JG1HNGz/84klThPVCc=);strokeColor=none;points=[];labelBackgroundColor=none;rounded=0;html=1;whiteSpace=wrap;" parent="1" vertex="1">
            <mxGeometry x="124" y="704" width="88" height="41" as="geometry" />
          </mxCell>
        </UserObject>
        <mxCell id="Gfq3Y8K2kFP6dDdqrRhs-100" value="&lt;font style=&quot;font-size: 10px;&quot;&gt;帧同步&lt;/font&gt;" style="text;html=1;strokeColor=none;fillColor=none;align=center;verticalAlign=middle;whiteSpace=wrap;rounded=0;" parent="1" vertex="1">
          <mxGeometry x="120" y="852" width="60" height="30" as="geometry" />
        </mxCell>
        <mxCell id="Gfq3Y8K2kFP6dDdqrRhs-101" value="&lt;font style=&quot;font-size: 8px;&quot;&gt;&lt;i&gt;双滑动窗口分组检测(判决门限为N)&lt;/i&gt;&lt;br&gt;&lt;div style=&quot;text-align: left;&quot;&gt;&lt;span style=&quot;background-color: initial;&quot;&gt;乘法: 2048 * N&lt;/span&gt;&lt;/div&gt;&lt;div style=&quot;text-align: left;&quot;&gt;&lt;span style=&quot;background-color: initial;&quot;&gt;加法: 2046 *N&lt;/span&gt;&lt;/div&gt;&lt;div style=&quot;text-align: left;&quot;&gt;&lt;span style=&quot;background-color: initial;&quot;&gt;求模：N&lt;/span&gt;&lt;/div&gt;&lt;div style=&quot;text-align: left;&quot;&gt;&lt;span style=&quot;background-color: initial;&quot;&gt;除法：N （ 比值作为判决门限)&amp;nbsp;&lt;/span&gt;&lt;/div&gt;&lt;/font&gt;" style="text;html=1;strokeColor=none;fillColor=none;align=center;verticalAlign=middle;whiteSpace=wrap;rounded=0;" parent="1" vertex="1">
          <mxGeometry x="73" y="920" width="139" height="50" as="geometry" />
        </mxCell>
        <mxCell id="Gfq3Y8K2kFP6dDdqrRhs-102" value="&lt;span style=&quot;font-size: 8px;&quot;&gt;&lt;b&gt;同步资源消耗(华为)&lt;/b&gt;&lt;br&gt;LUT: 26759&lt;br&gt;FF: 17743&lt;br&gt;FPGA(50M): 40.96us&lt;br&gt;&lt;/span&gt;" style="text;html=1;strokeColor=none;fillColor=none;align=center;verticalAlign=middle;whiteSpace=wrap;rounded=0;" parent="1" vertex="1">
          <mxGeometry x="160" y="805" width="140" height="50" as="geometry" />
        </mxCell>
        <mxCell id="Gfq3Y8K2kFP6dDdqrRhs-103" value="&lt;font style=&quot;font-size: 10px;&quot;&gt;符号同步&lt;/font&gt;" style="text;html=1;strokeColor=none;fillColor=none;align=center;verticalAlign=middle;whiteSpace=wrap;rounded=0;" parent="1" vertex="1">
          <mxGeometry x="267" y="850" width="60" height="30" as="geometry" />
        </mxCell>
        <mxCell id="Gfq3Y8K2kFP6dDdqrRhs-104" value="&lt;font style=&quot;font-size: 8px;&quot;&gt;训练序列+前导符号和本地序列下采8倍&lt;br&gt;(使用符号函数简化)&lt;/font&gt;" style="text;html=1;align=left;verticalAlign=middle;resizable=0;points=[];autosize=1;strokeColor=none;fillColor=none;" parent="1" vertex="1">
          <mxGeometry x="224.5" y="886.5" width="160" height="40" as="geometry" />
        </mxCell>
        <mxCell id="Gfq3Y8K2kFP6dDdqrRhs-105" value="&lt;font style=&quot;font-size: 8px;&quot;&gt;加法：13*256^2 =&amp;nbsp;851,968&amp;nbsp;&lt;/font&gt;" style="text;html=1;strokeColor=none;fillColor=none;align=center;verticalAlign=middle;whiteSpace=wrap;rounded=0;" parent="1" vertex="1">
          <mxGeometry x="242" y="870" width="150" height="30" as="geometry" />
        </mxCell>
        <mxCell id="Gfq3Y8K2kFP6dDdqrRhs-107" value="&lt;div style=&quot;text-align: left;&quot;&gt;&lt;font style=&quot;background-color: initial; font-size: 8px;&quot;&gt;使用fifo简化(&lt;/font&gt;&lt;font style=&quot;background-color: initial; font-size: 8px;&quot;&gt;判决门限N)&lt;/font&gt;&lt;/div&gt;&lt;font style=&quot;font-size: 8px;&quot;&gt;&lt;div style=&quot;text-align: left;&quot;&gt;&lt;span style=&quot;background-color: initial;&quot;&gt;加法:&amp;nbsp; N*128*4&lt;/span&gt;&lt;/div&gt;&lt;div style=&quot;text-align: left;&quot;&gt;&lt;span style=&quot;background-color: initial;&quot;&gt;移位:&amp;nbsp; N*128*3&lt;/span&gt;&lt;/div&gt;&lt;div style=&quot;text-align: left;&quot;&gt;&lt;span style=&quot;background-color: initial;&quot;&gt;取模:&amp;nbsp; N*128*2&lt;/span&gt;&lt;/div&gt;&lt;div style=&quot;text-align: left;&quot;&gt;&lt;span style=&quot;background-color: initial;&quot;&gt;除法:&amp;nbsp; N*128&lt;/span&gt;&lt;/div&gt;&lt;/font&gt;" style="text;html=1;strokeColor=none;fillColor=none;align=center;verticalAlign=middle;whiteSpace=wrap;rounded=0;" parent="1" vertex="1">
          <mxGeometry x="224.5" y="933" width="145" height="45" as="geometry" />
        </mxCell>
        <mxCell id="LQErdP0yNqYlYOM55kTD-96" value="&lt;span style=&quot;font-size: 17px; font-family: 宋体;&quot;&gt;&lt;span style=&quot;background: yellow; font-size: 17px;&quot;&gt;一个帧控制符号传输的信息位为&lt;/span&gt;&lt;/span&gt;&lt;span lang=&quot;EN-US&quot; style=&quot;font-size: 17px; font-family: &amp;quot;Times New Roman&amp;quot;, serif; background: yellow;&quot;&gt;128&lt;/span&gt;&lt;span style=&quot;font-size: 17px; font-family: 宋体; background: yellow;&quot;&gt;比特/16字节&lt;/span&gt;" style="text;whiteSpace=wrap;html=1;fontSize=17;" parent="1" vertex="1">
          <mxGeometry x="-134" y="310" width="250" height="50" as="geometry" />
        </mxCell>
      </root>
    </mxGraphModel>
  </diagram>
  <diagram id="fcoqFQhSc42sxhXTh0Ll" name="InterLeave">
    <mxGraphModel dx="1221" dy="626" grid="1" gridSize="10" guides="1" tooltips="1" connect="1" arrows="1" fold="1" page="1" pageScale="1" pageWidth="827" pageHeight="1169" math="0" shadow="0">
      <root>
        <mxCell id="0" />
        <mxCell id="1" parent="0" />
        <mxCell id="jIXX5i4MoG-DPIIoH0uK-1" style="edgeStyle=orthogonalEdgeStyle;rounded=0;orthogonalLoop=1;jettySize=auto;html=1;exitX=0.5;exitY=1;exitDx=0;exitDy=0;entryX=0.5;entryY=0;entryDx=0;entryDy=0;" edge="1" parent="1" source="jIXX5i4MoG-DPIIoH0uK-2" target="jIXX5i4MoG-DPIIoH0uK-4">
          <mxGeometry relative="1" as="geometry" />
        </mxCell>
        <mxCell id="jIXX5i4MoG-DPIIoH0uK-2" value="开始" style="rounded=1;whiteSpace=wrap;html=1;" vertex="1" parent="1">
          <mxGeometry x="200" y="80" width="80" height="40" as="geometry" />
        </mxCell>
        <mxCell id="jIXX5i4MoG-DPIIoH0uK-3" style="edgeStyle=orthogonalEdgeStyle;rounded=0;orthogonalLoop=1;jettySize=auto;html=1;exitX=0.5;exitY=1;exitDx=0;exitDy=0;entryX=0.5;entryY=0;entryDx=0;entryDy=0;" edge="1" parent="1" source="jIXX5i4MoG-DPIIoH0uK-4" target="jIXX5i4MoG-DPIIoH0uK-7">
          <mxGeometry relative="1" as="geometry" />
        </mxCell>
        <mxCell id="jIXX5i4MoG-DPIIoH0uK-4" value="（获取PB消息）&lt;br&gt;获取code和parity&lt;br&gt;获取Turbo码率" style="rounded=0;whiteSpace=wrap;html=1;" vertex="1" parent="1">
          <mxGeometry x="180" y="160" width="120" height="60" as="geometry" />
        </mxCell>
        <mxCell id="jIXX5i4MoG-DPIIoH0uK-5" value="No" style="edgeStyle=orthogonalEdgeStyle;rounded=0;orthogonalLoop=1;jettySize=auto;html=1;exitX=1;exitY=0.5;exitDx=0;exitDy=0;entryX=0;entryY=0.5;entryDx=0;entryDy=0;" edge="1" parent="1" source="jIXX5i4MoG-DPIIoH0uK-7" target="jIXX5i4MoG-DPIIoH0uK-10">
          <mxGeometry relative="1" as="geometry" />
        </mxCell>
        <mxCell id="jIXX5i4MoG-DPIIoH0uK-6" value="yes" style="edgeStyle=orthogonalEdgeStyle;rounded=0;orthogonalLoop=1;jettySize=auto;html=1;" edge="1" parent="1" source="jIXX5i4MoG-DPIIoH0uK-7" target="jIXX5i4MoG-DPIIoH0uK-20">
          <mxGeometry relative="1" as="geometry" />
        </mxCell>
        <mxCell id="jIXX5i4MoG-DPIIoH0uK-7" value="Turbo码率==1/2?" style="rhombus;whiteSpace=wrap;html=1;" vertex="1" parent="1">
          <mxGeometry x="180" y="260" width="120" height="40" as="geometry" />
        </mxCell>
        <mxCell id="jIXX5i4MoG-DPIIoH0uK-8" value="Yes" style="edgeStyle=orthogonalEdgeStyle;rounded=0;orthogonalLoop=1;jettySize=auto;html=1;" edge="1" parent="1" source="jIXX5i4MoG-DPIIoH0uK-10" target="jIXX5i4MoG-DPIIoH0uK-25">
          <mxGeometry relative="1" as="geometry" />
        </mxCell>
        <mxCell id="jIXX5i4MoG-DPIIoH0uK-9" value="" style="edgeStyle=orthogonalEdgeStyle;rounded=0;orthogonalLoop=1;jettySize=auto;html=1;" edge="1" parent="1" source="jIXX5i4MoG-DPIIoH0uK-10" target="jIXX5i4MoG-DPIIoH0uK-34">
          <mxGeometry relative="1" as="geometry" />
        </mxCell>
        <mxCell id="jIXX5i4MoG-DPIIoH0uK-10" value="Turbo码率==16/18?" style="rhombus;whiteSpace=wrap;html=1;" vertex="1" parent="1">
          <mxGeometry x="450" y="260" width="140" height="40" as="geometry" />
        </mxCell>
        <mxCell id="jIXX5i4MoG-DPIIoH0uK-11" value="" style="edgeStyle=orthogonalEdgeStyle;rounded=0;orthogonalLoop=1;jettySize=auto;html=1;" edge="1" parent="1" source="jIXX5i4MoG-DPIIoH0uK-12" target="jIXX5i4MoG-DPIIoH0uK-14">
          <mxGeometry relative="1" as="geometry" />
        </mxCell>
        <mxCell id="jIXX5i4MoG-DPIIoH0uK-12" value="（4bit code数据：C&lt;sup&gt;4&lt;/sup&gt;）&lt;br&gt;内交织+bitshift" style="rounded=0;whiteSpace=wrap;html=1;" vertex="1" parent="1">
          <mxGeometry x="160" y="440" width="160" height="40" as="geometry" />
        </mxCell>
        <mxCell id="jIXX5i4MoG-DPIIoH0uK-13" value="" style="edgeStyle=orthogonalEdgeStyle;rounded=0;orthogonalLoop=1;jettySize=auto;html=1;" edge="1" parent="1" source="jIXX5i4MoG-DPIIoH0uK-14" target="jIXX5i4MoG-DPIIoH0uK-17">
          <mxGeometry relative="1" as="geometry" />
        </mxCell>
        <mxCell id="jIXX5i4MoG-DPIIoH0uK-14" value="（4bit parity数据:P&lt;sup&gt;4&lt;/sup&gt;）&lt;br&gt;内交织+bitshift" style="rounded=0;whiteSpace=wrap;html=1;" vertex="1" parent="1">
          <mxGeometry x="160" y="520" width="160" height="40" as="geometry" />
        </mxCell>
        <mxCell id="jIXX5i4MoG-DPIIoH0uK-15" value="" style="edgeStyle=orthogonalEdgeStyle;rounded=0;orthogonalLoop=1;jettySize=auto;html=1;" edge="1" parent="1">
          <mxGeometry relative="1" as="geometry">
            <mxPoint x="520" y="480" as="sourcePoint" />
            <mxPoint x="520" y="520" as="targetPoint" />
          </mxGeometry>
        </mxCell>
        <mxCell id="jIXX5i4MoG-DPIIoH0uK-16" style="edgeStyle=orthogonalEdgeStyle;rounded=0;orthogonalLoop=1;jettySize=auto;html=1;exitX=0.5;exitY=1;exitDx=0;exitDy=0;entryX=0;entryY=0.5;entryDx=0;entryDy=0;" edge="1" parent="1" source="jIXX5i4MoG-DPIIoH0uK-17" target="jIXX5i4MoG-DPIIoH0uK-20">
          <mxGeometry relative="1" as="geometry">
            <mxPoint x="70" y="639.7777777777778" as="targetPoint" />
            <Array as="points">
              <mxPoint x="240" y="680" />
              <mxPoint x="120" y="680" />
              <mxPoint x="120" y="380" />
            </Array>
          </mxGeometry>
        </mxCell>
        <mxCell id="jIXX5i4MoG-DPIIoH0uK-17" value="（C&lt;sup&gt;4&lt;/sup&gt;和P&lt;sup&gt;4&lt;/sup&gt;组合成1Byte）&lt;br&gt;块交织" style="rounded=0;whiteSpace=wrap;html=1;" vertex="1" parent="1">
          <mxGeometry x="160" y="600" width="160" height="40" as="geometry" />
        </mxCell>
        <mxCell id="jIXX5i4MoG-DPIIoH0uK-18" value="No" style="edgeStyle=orthogonalEdgeStyle;rounded=0;orthogonalLoop=1;jettySize=auto;html=1;" edge="1" parent="1" source="jIXX5i4MoG-DPIIoH0uK-20" target="jIXX5i4MoG-DPIIoH0uK-12">
          <mxGeometry relative="1" as="geometry" />
        </mxCell>
        <mxCell id="jIXX5i4MoG-DPIIoH0uK-19" value="Yes" style="edgeStyle=orthogonalEdgeStyle;rounded=0;orthogonalLoop=1;jettySize=auto;html=1;entryX=0.5;entryY=0;entryDx=0;entryDy=0;" edge="1" parent="1" source="jIXX5i4MoG-DPIIoH0uK-20" target="jIXX5i4MoG-DPIIoH0uK-22">
          <mxGeometry x="-0.8846" relative="1" as="geometry">
            <mxPoint x="240" y="700" as="targetPoint" />
            <Array as="points">
              <mxPoint x="340" y="380" />
              <mxPoint x="340" y="700" />
              <mxPoint x="240" y="700" />
            </Array>
            <mxPoint as="offset" />
          </mxGeometry>
        </mxCell>
        <mxCell id="jIXX5i4MoG-DPIIoH0uK-20" value="PB交织完成？" style="rhombus;whiteSpace=wrap;html=1;" vertex="1" parent="1">
          <mxGeometry x="180" y="360" width="120" height="40" as="geometry" />
        </mxCell>
        <mxCell id="jIXX5i4MoG-DPIIoH0uK-21" value="" style="edgeStyle=orthogonalEdgeStyle;rounded=0;orthogonalLoop=1;jettySize=auto;html=1;" edge="1" parent="1" source="jIXX5i4MoG-DPIIoH0uK-22" target="jIXX5i4MoG-DPIIoH0uK-35">
          <mxGeometry relative="1" as="geometry" />
        </mxCell>
        <mxCell id="jIXX5i4MoG-DPIIoH0uK-22" value="输出结果数组" style="rounded=0;whiteSpace=wrap;html=1;" vertex="1" parent="1">
          <mxGeometry x="160" y="720" width="160" height="40" as="geometry" />
        </mxCell>
        <mxCell id="jIXX5i4MoG-DPIIoH0uK-23" value="（C&lt;sup&gt;4&lt;/sup&gt;C&lt;sup style=&quot;border-color: var(--border-color);&quot;&gt;4&lt;/sup&gt;C&lt;sup style=&quot;border-color: var(--border-color);&quot;&gt;4&lt;/sup&gt;P&lt;sup&gt;4&lt;/sup&gt;C&lt;sup style=&quot;border-color: var(--border-color);&quot;&gt;4&lt;/sup&gt;C&lt;sup style=&quot;border-color: var(--border-color);&quot;&gt;4&lt;/sup&gt;C&lt;sup style=&quot;border-color: var(--border-color);&quot;&gt;4&lt;/sup&gt;C&lt;sup style=&quot;border-color: var(--border-color);&quot;&gt;4&lt;/sup&gt;C&lt;sup style=&quot;border-color: var(--border-color);&quot;&gt;4&lt;/sup&gt;&lt;span style=&quot;border-color: var(--border-color);&quot;&gt;，&lt;br&gt;&lt;/span&gt;C&lt;sup style=&quot;border-color: var(--border-color);&quot;&gt;4&lt;/sup&gt;C&lt;sup style=&quot;border-color: var(--border-color);&quot;&gt;4&lt;/sup&gt;C&lt;sup style=&quot;border-color: var(--border-color);&quot;&gt;4&lt;/sup&gt;P&lt;sup style=&quot;border-color: var(--border-color);&quot;&gt;4&lt;/sup&gt;C&lt;sup style=&quot;border-color: var(--border-color);&quot;&gt;4&lt;/sup&gt;C&lt;sup style=&quot;border-color: var(--border-color);&quot;&gt;4&lt;/sup&gt;C&lt;sup style=&quot;border-color: var(--border-color);&quot;&gt;4&lt;/sup&gt;C&lt;sup style=&quot;border-color: var(--border-color);&quot;&gt;4&lt;/sup&gt;C&lt;sup style=&quot;border-color: var(--border-color);&quot;&gt;4&lt;/sup&gt;，&lt;sup&gt;&lt;br&gt;&lt;/sup&gt;组合成9Byte）&lt;br&gt;块交织" style="rounded=0;whiteSpace=wrap;html=1;" vertex="1" parent="1">
          <mxGeometry x="420" y="585" width="200" height="70" as="geometry" />
        </mxCell>
        <mxCell id="jIXX5i4MoG-DPIIoH0uK-24" value="No" style="edgeStyle=orthogonalEdgeStyle;rounded=0;orthogonalLoop=1;jettySize=auto;html=1;" edge="1" parent="1" source="jIXX5i4MoG-DPIIoH0uK-25">
          <mxGeometry relative="1" as="geometry">
            <mxPoint x="520" y="440" as="targetPoint" />
          </mxGeometry>
        </mxCell>
        <mxCell id="jIXX5i4MoG-DPIIoH0uK-25" value="PB交织完成？" style="rhombus;whiteSpace=wrap;html=1;" vertex="1" parent="1">
          <mxGeometry x="460" y="360" width="120" height="40" as="geometry" />
        </mxCell>
        <mxCell id="jIXX5i4MoG-DPIIoH0uK-26" value="（16个4bit code数据：16*C&lt;sup&gt;4&lt;/sup&gt;）&lt;br&gt;内交织+bitshift" style="rounded=0;whiteSpace=wrap;html=1;" vertex="1" parent="1">
          <mxGeometry x="420" y="440" width="200" height="40" as="geometry" />
        </mxCell>
        <mxCell id="jIXX5i4MoG-DPIIoH0uK-27" value="" style="edgeStyle=orthogonalEdgeStyle;rounded=0;orthogonalLoop=1;jettySize=auto;html=1;" edge="1" parent="1" source="jIXX5i4MoG-DPIIoH0uK-28" target="jIXX5i4MoG-DPIIoH0uK-23">
          <mxGeometry relative="1" as="geometry" />
        </mxCell>
        <mxCell id="jIXX5i4MoG-DPIIoH0uK-28" value="（16个4bit parity数据：16*P&lt;sup&gt;4&lt;/sup&gt;）&lt;br&gt;内交织+bitshift" style="rounded=0;whiteSpace=wrap;html=1;" vertex="1" parent="1">
          <mxGeometry x="420" y="520" width="200" height="40" as="geometry" />
        </mxCell>
        <mxCell id="jIXX5i4MoG-DPIIoH0uK-29" value="Yes" style="edgeStyle=orthogonalEdgeStyle;rounded=0;orthogonalLoop=1;jettySize=auto;html=1;entryX=0.5;entryY=0;entryDx=0;entryDy=0;exitX=1;exitY=0.5;exitDx=0;exitDy=0;" edge="1" parent="1" source="jIXX5i4MoG-DPIIoH0uK-25" target="jIXX5i4MoG-DPIIoH0uK-31">
          <mxGeometry x="-0.8846" relative="1" as="geometry">
            <mxPoint x="530" y="720" as="targetPoint" />
            <mxPoint x="590" y="380" as="sourcePoint" />
            <Array as="points">
              <mxPoint x="640" y="380" />
              <mxPoint x="640" y="700" />
              <mxPoint x="520" y="700" />
            </Array>
            <mxPoint as="offset" />
          </mxGeometry>
        </mxCell>
        <mxCell id="jIXX5i4MoG-DPIIoH0uK-30" style="edgeStyle=orthogonalEdgeStyle;rounded=0;orthogonalLoop=1;jettySize=auto;html=1;" edge="1" parent="1" source="jIXX5i4MoG-DPIIoH0uK-31">
          <mxGeometry relative="1" as="geometry">
            <mxPoint x="240" y="810" as="targetPoint" />
            <Array as="points">
              <mxPoint x="520" y="810" />
            </Array>
          </mxGeometry>
        </mxCell>
        <mxCell id="jIXX5i4MoG-DPIIoH0uK-31" value="输出结果数组" style="rounded=0;whiteSpace=wrap;html=1;" vertex="1" parent="1">
          <mxGeometry x="440" y="720" width="160" height="40" as="geometry" />
        </mxCell>
        <mxCell id="jIXX5i4MoG-DPIIoH0uK-32" style="edgeStyle=orthogonalEdgeStyle;rounded=0;orthogonalLoop=1;jettySize=auto;html=1;exitX=0.5;exitY=1;exitDx=0;exitDy=0;entryX=0;entryY=0.5;entryDx=0;entryDy=0;" edge="1" parent="1" source="jIXX5i4MoG-DPIIoH0uK-23" target="jIXX5i4MoG-DPIIoH0uK-25">
          <mxGeometry relative="1" as="geometry">
            <mxPoint x="429.95" y="380" as="targetPoint" />
            <mxPoint x="489.95" y="640" as="sourcePoint" />
            <Array as="points">
              <mxPoint x="520" y="680" />
              <mxPoint x="370" y="680" />
              <mxPoint x="370" y="380" />
            </Array>
          </mxGeometry>
        </mxCell>
        <mxCell id="jIXX5i4MoG-DPIIoH0uK-33" style="edgeStyle=orthogonalEdgeStyle;rounded=0;orthogonalLoop=1;jettySize=auto;html=1;exitX=0.5;exitY=1;exitDx=0;exitDy=0;" edge="1" parent="1" source="jIXX5i4MoG-DPIIoH0uK-34">
          <mxGeometry relative="1" as="geometry">
            <mxPoint x="240" y="830" as="targetPoint" />
            <Array as="points">
              <mxPoint x="720" y="830" />
              <mxPoint x="240" y="830" />
            </Array>
          </mxGeometry>
        </mxCell>
        <mxCell id="jIXX5i4MoG-DPIIoH0uK-34" value="报错：不支持的码率" style="rounded=0;whiteSpace=wrap;html=1;" vertex="1" parent="1">
          <mxGeometry x="660" y="720" width="120" height="40" as="geometry" />
        </mxCell>
        <mxCell id="jIXX5i4MoG-DPIIoH0uK-35" value="退出" style="rounded=1;whiteSpace=wrap;html=1;" vertex="1" parent="1">
          <mxGeometry x="200" y="880" width="80" height="40" as="geometry" />
        </mxCell>
        <mxCell id="jIXX5i4MoG-DPIIoH0uK-36" value="&lt;b&gt;函数调用接口：&lt;/b&gt;函数名和参数暂未确定" style="text;html=1;strokeColor=none;fillColor=none;align=left;verticalAlign=middle;whiteSpace=wrap;rounded=0;movable=1;resizable=1;rotatable=1;deletable=1;editable=1;connectable=1;" vertex="1" parent="1">
          <mxGeometry x="320" y="80" width="246" height="30" as="geometry" />
        </mxCell>
      </root>
    </mxGraphModel>
  </diagram>
</mxfile>
